<svg width="260" height="538" fill="none" xmlns="http://www.w3.org/2000/svg"><rect width="260" height="538" rx="39.381" fill="#2B3139"/><rect x="10.001" y="9" width="240" height="520" rx="32" fill="#181A20"/><rect x="10.001" y="9" width="240" height="520" rx="32" fill="#181A20"/><g clip-path="url(#clip0_3223_12861)"><rect x="10" y="9" width="240" height="520" rx="32" fill="#181A20"/><rect opacity=".35" x="225.573" y="20.42" width="13.44" height="6.618" rx="1.387" stroke="#EAECEF" stroke-width=".64"/><path opacity=".4" d="M239.973 22.448v2.562a1.39 1.39 0 000-2.562" fill="#EAECEF"/><rect x="226.533" y="21.381" width="11.52" height="4.696" rx=".853" fill="#EAECEF"/><path fill-rule="evenodd" clip-rule="evenodd" d="M217.147 21.561c1.424 0 2.793.547 3.825 1.528a.197.197 0 00.278-.002l.743-.75a.203.203 0 00.06-.146.206.206 0 00-.061-.146 7.004 7.004 0 00-9.69 0 .206.206 0 00-.002.293l.743.75a.197.197 0 00.278.001 5.554 5.554 0 013.826-1.528zm0 2.439c.782 0 1.537.29 2.116.815a.2.2 0 00.279-.003l.742-.75a.208.208 0 00-.003-.295 4.602 4.602 0 00-6.267 0 .206.206 0 00-.002.295l.741.75a.2.2 0 00.279.003 3.152 3.152 0 012.115-.815zm1.486 1.64a.205.205 0 01-.06.148l-1.284 1.295a.197.197 0 01-.142.06.197.197 0 01-.142-.06l-1.284-1.294a.201.201 0 01.006-.294 2.2 2.2 0 012.84 0c.041.037.065.09.066.145zM208.4 20.314h-.64a.64.64 0 00-.64.64v5.55c0 .354.287.64.64.64h.64a.64.64 0 00.64-.64v-5.55a.64.64 0 00-.64-.64zm-3.627 1.494h.64a.64.64 0 01.64.64v4.056a.64.64 0 01-.64.64h-.64a.64.64 0 01-.64-.64v-4.056a.64.64 0 01.64-.64zm-2.346 1.494h-.64a.64.64 0 00-.64.64v2.562c0 .354.286.64.64.64h.64a.64.64 0 00.64-.64v-2.562a.64.64 0 00-.64-.64zm-2.987 1.28h-.64a.64.64 0 00-.64.641v1.281c0 .354.287.64.64.64h.64a.64.64 0 00.64-.64v-1.28a.64.64 0 00-.64-.641z" fill="#EAECEF"/><path d="M26.775 25.596h.09c.5 0 .905-.07 1.218-.21a1.73 1.73 0 00.722-.568c.169-.237.284-.505.347-.802.062-.3.093-.607.093-.923v-1.045c0-.31-.035-.585-.107-.825a1.784 1.784 0 00-.29-.605 1.29 1.29 0 00-.418-.37 1.03 1.03 0 00-.497-.127c-.2 0-.38.04-.539.122-.156.078-.29.19-.398.333a1.587 1.587 0 00-.244.506 2.26 2.26 0 00-.085.633c0 .203.025.4.075.59.05.191.127.363.23.516.103.153.231.275.384.366.157.087.34.131.549.131.194 0 .375-.037.544-.112a1.575 1.575 0 00.914-1.299h.412c0 .26-.051.516-.154.769-.1.25-.241.478-.422.684a2.145 2.145 0 01-.638.497c-.244.122-.51.183-.797.183-.337 0-.63-.066-.876-.197a1.771 1.771 0 01-.61-.525 2.399 2.399 0 01-.351-.731 3.09 3.09 0 01-.113-.825c0-.325.046-.63.136-.914.09-.285.225-.535.403-.75a1.83 1.83 0 01.661-.511c.266-.122.572-.183.919-.183.39 0 .724.078.998.234.275.157.499.366.67.628.176.263.304.558.385.886a4.2 4.2 0 01.122 1.013v.314c0 .353-.023.713-.07 1.078-.044.363-.13.71-.258 1.04a2.737 2.737 0 01-.549.891c-.24.26-.554.466-.942.62-.384.15-.86.224-1.425.224h-.089v-.736zm4.402.267a.53.53 0 01.136-.37c.094-.103.228-.155.403-.155.175 0 .308.052.398.155a.52.52 0 01.141.37.515.515 0 01-.14.366c-.091.1-.224.15-.399.15-.175 0-.31-.05-.403-.15a.525.525 0 01-.136-.366zm.005-4.139c0-.147.045-.27.136-.37.093-.103.228-.155.403-.155.175 0 .308.052.398.155.094.1.14.223.14.37a.515.515 0 01-.14.366c-.09.1-.223.15-.398.15-.175 0-.31-.05-.403-.15a.525.525 0 01-.136-.366zm6.684 2.302v.712h-4.931v-.51l3.056-4.73h.708l-.76 1.368-2.02 3.16h3.947zm-.951-4.528v6.825h-.867v-6.825h.867zm4.397-.038v6.863h-.867v-5.78l-1.749.638v-.783l2.48-.938h.136z" fill="#EAECEF"/><path fill="#181A20" d="M10 9h240v28.16H10z"/><rect opacity=".35" x="225.573" y="20.413" width="13.44" height="6.613" rx="1.387" stroke="#EAECEF" stroke-width=".64"/><path opacity=".4" d="M239.973 22.44V25a1.389 1.389 0 000-2.56" fill="#EAECEF"/><rect x="226.533" y="21.373" width="11.52" height="4.693" rx=".853" fill="#EAECEF"/><path fill-rule="evenodd" clip-rule="evenodd" d="M217.147 21.554a5.55 5.55 0 013.825 1.527.198.198 0 00.278-.003l.743-.748a.203.203 0 00.06-.147.205.205 0 00-.061-.146 7.007 7.007 0 00-9.69 0 .206.206 0 00-.002.293l.743.748a.197.197 0 00.278.003 5.556 5.556 0 013.826-1.527zm0 2.437c.782 0 1.537.29 2.116.815a.2.2 0 00.279-.004l.742-.749a.208.208 0 00-.003-.295 4.604 4.604 0 00-6.267 0 .206.206 0 00-.002.295l.741.75a.2.2 0 00.279.003 3.153 3.153 0 012.115-.815zm1.486 1.64a.2.2 0 01-.06.147l-1.284 1.294a.198.198 0 01-.142.06.198.198 0 01-.142-.06l-1.284-1.294a.201.201 0 01.006-.293 2.2 2.2 0 012.84 0c.041.037.065.09.066.145zM208.4 20.307h-.64a.64.64 0 00-.64.64v5.546c0 .354.286.64.64.64h.64a.64.64 0 00.64-.64v-5.546a.64.64 0 00-.64-.64zm-3.627 1.493h.64a.64.64 0 01.64.64v4.053a.64.64 0 01-.64.64h-.64a.64.64 0 01-.64-.64V22.44a.64.64 0 01.64-.64zm-2.346 1.493h-.64a.64.64 0 00-.64.64v2.56c0 .354.286.64.64.64h.64a.64.64 0 00.64-.64v-2.56a.64.64 0 00-.64-.64zm-2.987 1.28h-.64a.64.64 0 00-.64.64v1.28c0 .354.286.64.64.64h.64a.64.64 0 00.64-.64v-1.28a.64.64 0 00-.64-.64z" fill="#EAECEF"/><path d="M32.921 26.92c1.697 0 2.705-1.335 2.705-3.599 0-2.223-1.072-3.441-2.668-3.441-1.451 0-2.478.981-2.478 2.353 0 1.288.925 2.227 2.196 2.227.782 0 1.415-.363 1.73-1h.078c-.014 1.577-.573 2.479-1.549 2.479-.573 0-1.03-.316-1.174-.828h-1.188c.194 1.093 1.128 1.809 2.348 1.809zm.042-3.385c-.777 0-1.313-.549-1.313-1.34 0-.757.564-1.338 1.318-1.338.753 0 1.317.59 1.317 1.362 0 .762-.55 1.316-1.322 1.316zm4.758-1.12c.44 0 .74-.308.74-.721 0-.414-.3-.721-.74-.721-.435 0-.74.307-.74.72 0 .414.305.721.74.721zm0 3.412c.44 0 .74-.311.74-.72 0-.414-.3-.721-.74-.721-.435 0-.74.307-.74.72 0 .41.305.721.74.721zm5.35.93h1.142V25.47h.901v-.99h-.901v-4.432H42.53a89.55 89.55 0 00-2.72 4.441v.981h3.26v1.288zm-2.155-2.32a73.327 73.327 0 012.108-3.432h.065v3.502h-2.173v-.07zm6.931 2.32h1.193v-6.71h-1.188l-1.743 1.233v1.13l1.66-1.181h.078v5.528z" fill="#fff"/><circle cx="7.68" cy="7.68" r="7.68" transform="matrix(1 0 0 -1 19.6 58.92)" fill="#848E9C" fill-opacity=".1"/><path d="M33.852 55.213a7.676 7.676 0 01-6.573 3.707 7.676 7.676 0 01-6.574-3.707 3.072 3.072 0 012.734-1.669h1.536l2.304 2.304 2.304-2.304h1.536a3.07 3.07 0 012.733 1.67z" fill="#76808F"/><path fill-rule="evenodd" clip-rule="evenodd" d="M29.724 46.108a3.456 3.456 0 10-4.888 4.888 3.456 3.456 0 004.888-4.888z" fill="url(#paint0_linear_3223_12861)"/><path d="M29.723 46.108a3.456 3.456 0 00-4.888 4.888l4.887-4.888zm-4.748 12.46v-5.024l2.304 2.304 2.304-2.304v5.024a7.675 7.675 0 01-2.304.352 7.675 7.675 0 01-2.304-.352z" fill="#76808F"/><path d="M24.975 58.568v-5.024l2.304 2.304 2.304-2.304v5.024a7.678 7.678 0 01-2.304.352 7.678 7.678 0 01-2.304-.352z" fill="#929AA5"/><path fill-rule="evenodd" clip-rule="evenodd" d="M209.04 47.4a3.2 3.2 0 110 6.4 3.2 3.2 0 010-6.4zm0-1.92a5.12 5.12 0 014.493 7.576l1.965 1.966-1.018 1.018-1.018 1.018-1.965-1.965a5.12 5.12 0 11-2.457-9.613zm20.726 1.034h1.772v1.772h-1.772v1.772h-1.773v-3.544h1.773zm4.135 0h3.544v3.544h-1.772v-1.772h-1.772v-1.772zm-2.363 7.68h-1.773V52.42h-1.772v3.545h3.545v-1.772zm2.363 0h1.772V52.42h1.772v3.545h-3.544v-1.772zm1.181-3.84h-4.726v1.772h4.726v-1.772z" fill="#707A8A"/><path d="M24.04 89.008V93.8h-.646v-4.792h-1.705v-.569h4.055v.569h-1.705zm3.907-1.966h.837c.392 0 .538.192.538.422 0 .223-.139.492-.377.791l-.184.23-.338-.176.46-.822h-.936v-.445zm0 1.036l.845 1.03-.315.23-.914-.86-.914.86-.315-.23.845-1.03h.768zm-.384 5.814c-1.06 0-1.79-.814-1.79-2.073 0-1.26.73-2.074 1.79-2.074s1.79.814 1.79 2.073c0 1.26-.73 2.074-1.79 2.074zm0-.545c.66 0 1.129-.407 1.129-1.244v-.569c0-.837-.469-1.244-1.13-1.244-.66 0-1.128.407-1.128 1.244v.569c0 .837.468 1.244 1.129 1.244zm2.8.453v-3.963h.614v.645h.03c.193-.445.53-.737 1.122-.737.814 0 1.329.553 1.329 1.513V93.8h-.614v-2.435c0-.706-.308-1.067-.9-1.067-.49 0-.967.246-.967.752v2.75h-.614zm7.706.438c0 .814-.646 1.19-1.92 1.19-1.237 0-1.744-.353-1.744-.975 0-.43.238-.66.63-.768V93.6a.574.574 0 01-.353-.553c0-.399.284-.591.683-.69v-.032c-.468-.222-.745-.66-.745-1.213 0-.806.592-1.367 1.49-1.367.284 0 .538.054.753.153v-.069c0-.307.13-.53.46-.53h.592v.538h-.753v.254c.285.245.453.599.453 1.021 0 .806-.59 1.367-1.497 1.367a2.04 2.04 0 01-.384-.038c-.261.069-.522.2-.522.445 0 .238.245.3.606.3h.845c.983 0 1.406.399 1.406 1.052zm-1.951-2.25c.522 0 .852-.246.852-.769v-.215c0-.522-.33-.767-.852-.767s-.853.245-.853.767v.215c0 .523.33.769.853.769zm1.375 2.296c0-.315-.208-.522-.822-.522H35.35c-.254.115-.369.291-.369.537 0 .346.238.63.86.63h.569c.683 0 1.083-.215 1.083-.645zm4.298-.392c-.73 0-1.214-.307-1.567-.775l.438-.354c.307.384.676.607 1.175.607.522 0 .83-.238.83-.645 0-.307-.17-.545-.692-.622l-.315-.046c-.73-.108-1.275-.407-1.275-1.145 0-.783.607-1.167 1.413-1.167.638 0 1.06.238 1.383.637l-.407.369c-.177-.246-.515-.484-1.022-.484s-.775.238-.775.615c0 .384.268.537.76.614l.307.046c.876.13 1.214.515 1.214 1.114 0 .768-.561 1.236-1.467 1.236zm5.232-5.453l-.376-.176.653-1.306.537.261-.814 1.221zm-.799-.36l.845 1.029-.315.23-.914-.86-.914.86-.314-.23.844-1.03h.768zm-.384 5.813c-1.06 0-1.789-.814-1.789-2.073 0-1.26.73-2.074 1.79-2.074s1.789.814 1.789 2.073c0 1.26-.73 2.074-1.79 2.074zm0-.545c.66 0 1.13-.407 1.13-1.244v-.569c0-.837-.47-1.244-1.13-1.244-.66 0-1.129.407-1.129 1.244v.569c0 .837.469 1.244 1.13 1.244zm7.15-.192h-.031c-.238.491-.614.737-1.16.737-.99 0-1.612-.806-1.612-2.073 0-1.268.622-2.074 1.612-2.074.546 0 .953.238 1.16.737h.03v-2.365h.615V93.8h-.614v-.645zm-1.022.184c.56 0 1.022-.292 1.022-.806v-1.475c0-.438-.461-.76-1.022-.76-.69 0-1.121.476-1.121 1.183v.675c0 .707.43 1.183 1.121 1.183zm6.636-3.579c0 .27-.1.484-.483.484h-.154V93.8h-.614v-.645h-.031c-.154.376-.453.737-1.114.737-.814 0-1.336-.553-1.336-1.513v-2.542h.614v2.435c0 .706.315 1.067.907 1.067.483 0 .96-.238.96-.76v-2.742h.706v-.86h.545v.783z" fill="#EAECEF"/><path d="M68.24 91.987a1.067 1.067 0 100-2.134 1.067 1.067 0 000 2.134z" fill="#707A8A"/><path fill-rule="evenodd" clip-rule="evenodd" d="M65.917 88.492l-2.37 2.428 2.37 2.428a3.23 3.23 0 004.646 0l2.37-2.428-2.37-2.428a3.23 3.23 0 00-4.646 0zm4.456 2.428a2.133 2.133 0 11-4.266 0 2.133 2.133 0 014.266 0z" fill="#707A8A"/><path d="M26.108 116.789v-1.594c-1.81-.144-3.011-.914-3.907-1.954l1.451-1.326c.7.807 1.56 1.344 2.617 1.488v-3.638c-2.616-.556-3.71-1.685-3.71-3.441 0-1.899 1.308-3.118 3.549-3.369v-1.613h1.774v1.613c1.487.161 2.562.753 3.369 1.738l-1.47 1.273c-.466-.574-1.11-1.022-2.06-1.219v3.333c2.544.592 3.709 1.595 3.709 3.441 0 1.846-1.2 3.279-3.548 3.62v1.648h-1.774zm-1.38-10.554c0 .842.483 1.236 1.54 1.523v-3.029c-1.02.179-1.54.699-1.54 1.506zm4.551 5.447c0-.717-.358-1.272-1.559-1.595v3.298c1.004-.215 1.56-.861 1.56-1.703zm9.294-8.87c.125 0 .215.089.215.215v12.078c0 .125-.09.215-.215.215h-1.63a.207.207 0 01-.216-.215v-9.981l-2.258 2.06c-.125.126-.269.054-.269-.125v-1.971a.38.38 0 01.126-.269l2.204-1.9a.327.327 0 01.25-.107h1.793zm8.014 12.723c-2.025 0-3.656-1.38-3.656-3.638v-5.662c0-2.258 1.63-3.638 3.656-3.638 2.043 0 3.673 1.38 3.673 3.638v5.662c0 2.258-1.63 3.638-3.673 3.638zm0-2.079c1.057 0 1.684-.77 1.684-1.881v-5.018c0-1.111-.627-1.881-1.684-1.881-1.04 0-1.667.77-1.667 1.881v5.018c0 1.111.627 1.881 1.667 1.881zm8.551 2.688a.323.323 0 01-.125.269l-2.15 1.667c-.144.107-.27.036-.27-.144v-4.946c0-.125.09-.215.216-.215h2.114c.126 0 .215.09.215.215v3.154zm9.682-13.332c.126 0 .215.089.215.215v1.236a.79.79 0 01-.053.269l-4.05 10.627c-.036.107-.126.161-.251.161h-1.846c-.161 0-.233-.09-.18-.251l3.961-10.304h-3.028v1.398c0 .125-.09.215-.215.215h-1.577a.207.207 0 01-.215-.215v-3.136c0-.126.09-.215.215-.215h7.024zm5.882 12.723c-2.186 0-3.907-1.398-3.907-3.691 0-1.524.842-2.456 1.738-2.993-.824-.502-1.523-1.398-1.523-2.742 0-2.114 1.613-3.512 3.692-3.512s3.71 1.398 3.71 3.512c0 1.344-.7 2.24-1.524 2.742.896.537 1.738 1.469 1.738 2.993 0 2.293-1.738 3.691-3.924 3.691zm0-7.741c.932 0 1.595-.681 1.595-1.631 0-.932-.663-1.631-1.595-1.631-.932 0-1.577.699-1.577 1.631 0 .95.645 1.631 1.577 1.631zm0 5.788c.985 0 1.756-.789 1.756-1.792 0-.986-.77-1.774-1.756-1.774s-1.756.788-1.756 1.774c0 1.003.77 1.792 1.756 1.792zm9.555-10.985c2.222 0 3.727 1.541 3.727 3.763 0 .896-.215 1.702-.878 3.028l-2.85 5.771a.27.27 0 01-.25.161h-1.81c-.161 0-.233-.09-.161-.251l2.526-5.053a2.983 2.983 0 01-.716.071c-1.918 0-3.298-1.523-3.298-3.637 0-2.312 1.488-3.853 3.71-3.853zm.018 5.501c.914 0 1.47-.645 1.47-1.702 0-1.004-.556-1.703-1.47-1.703-.914 0-1.488.681-1.488 1.703 0 1.057.556 1.702 1.488 1.702zm8.64 7.007a.207.207 0 01-.214.215h-2.222a.207.207 0 01-.215-.215v-2.222c0-.126.09-.215.215-.215H88.7c.125 0 .215.089.215.215v2.222zm7.53-12.293c.126 0 .215.089.215.215v12.078c0 .125-.09.215-.215.215h-1.63a.207.207 0 01-.215-.215v-9.981l-2.258 2.06c-.126.126-.27.054-.27-.125v-1.971c0-.108.055-.197.126-.269l2.205-1.9a.327.327 0 01.25-.107h1.792zm11.544 10.537c.126 0 .216.089.216.215v1.541c0 .125-.09.215-.216.215h-6.917a.207.207 0 01-.215-.215v-1.613c0-.107.018-.197.09-.269l4.587-5.698c.395-.484.556-.896.556-1.416 0-1.003-.591-1.613-1.541-1.613-.86 0-1.47.574-1.541 1.452-.018.143-.108.215-.233.215h-1.685c-.125 0-.215-.072-.215-.215.108-2.007 1.541-3.351 3.674-3.351 2.204 0 3.656 1.398 3.656 3.548 0 .95-.287 1.595-1.201 2.724l-3.656 4.48h4.641z" fill="#EAECEF"/><path fill-rule="evenodd" clip-rule="evenodd" d="M236.56 103.081l-4.525 4.525-1.132-1.131 2.595-2.595h-8.459v-1.6h8.458l-2.594-2.594 1.132-1.131 4.525 4.525v.001z" fill="#EAECEF"/><path d="M36.509 163.106h-.031c-.108.514-.63.906-1.444.906-1.275 0-2.212-.975-2.212-2.772 0-1.79.937-2.773 2.343-2.773.96 0 1.628.453 1.996 1.206l-.706.415c-.207-.5-.637-.845-1.29-.845-.845 0-1.413.576-1.413 1.559v.875c0 .983.568 1.559 1.413 1.559.675 0 1.267-.345 1.267-1.013v-.415h-1.106v-.745h1.943v2.857h-.76v-.814zm1.736.814v-.707h.73v-3.947h-.73v-.707h2.335v.707h-.738v3.947h.738v.707h-2.335zm5.584-5.752l-.523-.246.7-1.382.729.353-.907 1.275zm2.311-.446v.745c0 .377-.115.607-.607.607h-.207c.5.507.73 1.244.73 2.166 0 1.804-.914 2.772-2.312 2.772-1.398 0-2.312-.968-2.312-2.772 0-1.805.914-2.773 2.312-2.773.246 0 .484.031.699.092h.983v-.837h.714zm-2.396 5.514c.83 0 1.382-.599 1.382-1.574v-.845c0-.975-.553-1.574-1.382-1.574-.83 0-1.382.599-1.382 1.574v.845c0 .975.552 1.574 1.382 1.574zm3.163.684v-.707h.73v-3.947h-.73v-.707h2.335v.707h-.737v3.947h.737v.707h-2.334zm6.362-4.593h-1.597v-.768h4.062v.768h-1.597v4.593h-.868v-4.593zm6.606 2.258h-2.427v2.335h-.868v-5.361h.868v2.258h2.427v-2.258h.868v5.361h-.868v-2.335zm1.958 2.335v-.707h.73v-3.947h-.73v-.707h2.334v.707h-.737v3.947h.737v.707h-2.334zm5.56-7.25l.921 1.152-.43.323-.913-.891-.914.891-.43-.323.921-1.152h.845zm-2.135 7.25v-5.361h3.433v.768h-2.565v1.49h2.327v.768h-2.327v1.567h2.565v.768h-3.433zm1.713 1.413c-.346 0-.492-.169-.492-.407v-.138c0-.238.146-.407.492-.407.345 0 .491.169.491.407v.138c0 .238-.146.407-.492.407zm3.661-6.774v3.303c0 .906.315 1.374 1.152 1.374s1.152-.468 1.152-1.374v-3.303h.853v3.165c0 1.566-.538 2.288-2.005 2.288-1.467 0-2.004-.722-2.004-2.288v-3.165h.852zm7.495 5.361l-1.759-5.361h.899l.852 2.65.515 1.866h.03l.523-1.866.852-2.65h.876l-1.782 5.361h-1.006zm4.11-7.027l.729-.353.699 1.382-.523.246-.906-1.275zm2.464 7.027l-.483-1.452h-2.005l-.468 1.452h-.884l1.828-5.361h1.09l1.829 5.361H84.7zm-1.466-4.562h-.039l-.776 2.366h1.582l-.767-2.366zm6.623 2.058l-.737.845v1.659h-.868v-5.361h.868v2.719h.03l.768-.975 1.444-1.744h1.014l-1.912 2.258 2.066 3.103h-1.045l-1.628-2.504zm3.234 2.504v-.707h.73v-3.947h-.73v-.707h2.335v.707h-.737v3.947h.737v.707h-2.335zm6.383-6.751l-.476-.23.698-1.383.684.338-.906 1.275zm-.868-.368l.96 1.075-.407.345-.93-.837-.929.837-.407-.345.96-1.075h.753zm-2.09 7.119v-5.361h3.434v.768h-2.565v1.49h2.327v.768h-2.327v1.567h2.565v.768h-3.433zm4.553-5.361h1.03l1.436 2.727h.046l1.436-2.727h.983v5.361h-.829v-4.101h-.039l-.422.868-1.175 2.142-1.175-2.142-.423-.868h-.038v4.101h-.83v-5.361zm9.192.768h-1.598v-.768h4.063v.768h-1.597v4.593h-.868v-4.593zm3.035 4.593v-.707h.73v-3.947h-.73v-.707h2.335v.707h-.737v3.947h.737v.707h-2.335zm2.988-8.026l.684-.338.699 1.383-.477.23-.906-1.275zm2.527.907l.96 1.075-.407.345-.929-.837-.93.837-.407-.345.96-1.075h.753zm-2.089 7.119v-5.361h3.433v.768h-2.565v1.49h2.327v.768h-2.327v1.567h2.565v.768h-3.433zm5.996-2.964l-.591-1.137h-.023v4.101h-.83v-5.361h.968l1.751 2.965.591 1.136h.023v-4.101h.83v5.361h-.968l-1.751-2.964z" fill="#848E9C"/><path d="M33.344 171.159h1.717l2.062 3.928h.046l2.04-3.928h1.647v8.041h-1.44v-5.772h-.046l-.623 1.279-1.647 3.041-1.647-3.041-.622-1.279h-.047v5.772h-1.44v-8.041zm10.097-.622l1.244-.611 1.094 2.155-.887.426-1.451-1.97zm4.608 1.405v1.095c0 .587-.173 1.014-.841 1.014.46.599.633 1.267.633 2.108 0 1.935-1.071 3.179-2.799 3.179-1.717 0-2.788-1.244-2.788-3.179 0-1.924 1.072-3.111 2.788-3.111.346 0 .668.046.956.139h.795v-1.245h1.256zm-3.007 6.21c.772 0 1.256-.496 1.256-1.406v-1.117c0-.899-.484-1.394-1.256-1.394-.76 0-1.244.495-1.244 1.394v1.117c0 .91.484 1.406 1.244 1.406zm4.844-5.841c-.61 0-.864-.311-.864-.737v-.231c0-.426.253-.737.864-.737.599 0 .864.311.864.737v.231c0 .426-.265.737-.864.737zm-.737.876h1.474v6.013H49.15v-6.013zm5.906-2.512h1.474v3.502h.046c.22-.691.864-1.129 1.66-1.129 1.52 0 2.361 1.129 2.361 3.134 0 2.016-.841 3.156-2.362 3.156-.794 0-1.428-.461-1.659-1.14h-.046v1.002h-1.474v-8.525zm2.707 7.442c.76 0 1.29-.553 1.29-1.405v-1.037c0-.853-.53-1.417-1.29-1.417-.703 0-1.233.38-1.233.968v1.912c0 .622.53.979 1.233.979zm5.687 1.221c-1.222 0-1.913-.702-1.913-1.774 0-1.232.933-1.843 2.57-1.843h1.024v-.438c0-.668-.334-1.06-1.117-1.06-.691 0-1.083.346-1.37.761l-.877-.784c.438-.691 1.141-1.152 2.35-1.152 1.625 0 2.489.772 2.489 2.143v2.834h.599v1.175h-.818c-.633 0-1.025-.415-1.117-1.037h-.07c-.195.772-.852 1.175-1.75 1.175zm.495-1.071c.656 0 1.186-.3 1.186-.864v-.795h-.944c-.772 0-1.152.265-1.152.737v.196c0 .484.334.726.91.726zm.184 3.168c-.599 0-.83-.288-.83-.668v-.254c0-.38.231-.668.83-.668.6 0 .83.288.83.668v.254c0 .38-.23.668-.83.668zm4.27-2.235v-6.013h1.474v1.002h.058c.241-.645.748-1.141 1.681-1.141 1.233 0 1.924.853 1.924 2.35v3.802h-1.474v-3.652c0-.852-.288-1.29-.991-1.29-.61 0-1.198.322-1.198.968v3.974h-1.475zm9.494-8.525h1.475v3.502h.046c.219-.691.864-1.129 1.659-1.129 1.52 0 2.361 1.129 2.361 3.134 0 2.016-.84 3.156-2.361 3.156-.795 0-1.429-.461-1.659-1.14h-.046v1.002h-1.475v-8.525zm2.708 7.442c.76 0 1.29-.553 1.29-1.405v-1.037c0-.853-.53-1.417-1.29-1.417-.703 0-1.233.38-1.233.968v1.912c0 .622.53.979 1.233.979zm5.03-7.58l1.244-.611 1.094 2.155-.887.426-1.452-1.97zm1.6 8.801c-1.773 0-2.833-1.232-2.833-3.156 0-1.901 1.025-3.134 2.787-3.134 1.878 0 2.742 1.383 2.742 3.03v.484H85.93v.15c0 .864.495 1.451 1.463 1.451.726 0 1.163-.345 1.532-.818l.795.887c-.495.68-1.371 1.106-2.488 1.106zm-.022-5.184c-.772 0-1.28.576-1.28 1.406v.092h2.466v-.104c0-.829-.426-1.394-1.186-1.394zm5.402 5.576a.208.208 0 01-.08.173l-1.383 1.071c-.092.069-.172.023-.172-.092v-3.18c0-.08.057-.138.138-.138h1.36c.08 0 .137.058.137.138v2.028zm4.374-9.055h1.474v3.514h.058c.242-.645.749-1.141 1.682-1.141 1.232 0 1.924.853 1.924 2.35v3.802h-1.475v-3.652c0-.852-.288-1.29-.99-1.29-.611 0-1.199.322-1.199.968v3.974h-1.474v-8.525zm9.157 8.663c-1.717 0-2.788-1.221-2.788-3.156 0-1.924 1.071-3.134 2.788-3.134 1.728 0 2.799 1.21 2.799 3.134 0 1.935-1.071 3.156-2.799 3.156zm0-1.186c.772 0 1.255-.496 1.255-1.406v-1.117c0-.899-.483-1.394-1.255-1.394-.761 0-1.244.495-1.244 1.394v1.117c0 .91.483 1.406 1.244 1.406zm4.682-7.615l1.245-.611 1.094 2.155-.887.426-1.452-1.97zm.91 8.801c-1.221 0-1.912-.702-1.912-1.774 0-1.232.933-1.843 2.569-1.843h1.025v-.438c0-.668-.334-1.06-1.117-1.06-.691 0-1.083.346-1.371.761l-.875-.784c.437-.691 1.14-1.152 2.35-1.152 1.624 0 2.488.772 2.488 2.143v2.834h.599v1.175h-.818c-.634 0-1.025-.415-1.117-1.037h-.07c-.195.772-.852 1.175-1.751 1.175zm.496-1.071c.656 0 1.186-.3 1.186-.864v-.795h-.944c-.772 0-1.152.265-1.152.737v.196c0 .484.334.726.91.726zm4.453.933v-6.013h1.475v1.002h.058c.241-.645.748-1.141 1.681-1.141 1.233 0 1.924.853 1.924 2.35v3.802h-1.474v-3.652c0-.852-.288-1.29-.991-1.29-.611 0-1.198.322-1.198.968v3.974h-1.475zm11.373 0c-1.014 0-1.555-.553-1.555-1.532v-3.306h-.887v-1.175h.461c.437 0 .576-.208.576-.623v-1.025h1.324v1.648h1.233v1.175h-1.233v3.663h1.141v1.175h-1.06zm4.921-6.693l-.888-.426 1.095-2.155 1.244.611-1.451 1.97zm2.856-.565v1.095c0 .587-.172 1.014-.84 1.014.46.599.633 1.267.633 2.108 0 1.935-1.071 3.179-2.799 3.179-1.717 0-2.788-1.244-2.788-3.179 0-1.924 1.071-3.111 2.788-3.111.345 0 .668.046.956.139h.795v-1.245h1.255zm-3.006 6.21c.772 0 1.255-.496 1.255-1.406v-1.117c0-.899-.483-1.394-1.255-1.394-.761 0-1.244.495-1.244 1.394v1.117c0 .91.483 1.406 1.244 1.406zm4.844-5.841c-.611 0-.864-.311-.864-.737v-.231c0-.426.253-.737.864-.737.599 0 .864.311.864.737v.231c0 .426-.265.737-.864.737zm-.738.876h1.475v6.013h-1.475v-6.013zm9.109-2.028c.081 0 .138.058.138.138v7.765c0 .08-.057.138-.138.138h-1.048a.133.133 0 01-.138-.138v-6.417l-1.452 1.325c-.081.081-.173.034-.173-.081v-1.267c0-.069.035-.127.081-.173l1.417-1.221a.209.209 0 01.161-.069h1.152zm4.576 7.903c0 .08-.058.138-.138.138h-1.429a.133.133 0 01-.138-.138v-1.429c0-.08.058-.138.138-.138h1.429c.08 0 .138.058.138.138v1.429zm3.85.276c-1.302 0-2.35-.887-2.35-2.338v-3.641c0-1.451 1.048-2.338 2.35-2.338 1.313 0 2.361.887 2.361 2.338V177c0 1.451-1.048 2.338-2.361 2.338zm0-1.336c.679 0 1.083-.495 1.083-1.21v-3.225c0-.715-.404-1.21-1.083-1.21-.668 0-1.072.495-1.072 1.21v3.225c0 .715.404 1.21 1.072 1.21zm6.142 1.336c-1.302 0-2.35-.887-2.35-2.338v-3.641c0-1.451 1.048-2.338 2.35-2.338 1.313 0 2.362.887 2.362 2.338V177c0 1.451-1.049 2.338-2.362 2.338zm0-1.336c.68 0 1.083-.495 1.083-1.21v-3.225c0-.715-.403-1.21-1.083-1.21-.668 0-1.071.495-1.071 1.21v3.225c0 .715.403 1.21 1.071 1.21zm6.143 1.336c-1.302 0-2.35-.887-2.35-2.338v-3.641c0-1.451 1.048-2.338 2.35-2.338 1.313 0 2.361.887 2.361 2.338V177c0 1.451-1.048 2.338-2.361 2.338zm0-1.336c.679 0 1.083-.495 1.083-1.21v-3.225c0-.715-.404-1.21-1.083-1.21-.668 0-1.072.495-1.072 1.21v3.225c0 .715.404 1.21 1.072 1.21zm-131.968 7.157v4.942c0 1.256.438 1.889 1.59 1.889 1.152 0 1.59-.633 1.59-1.889v-4.942h1.498v4.746c0 2.362-.841 3.433-3.1 3.433-2.257 0-3.075-1.071-3.075-3.433v-4.746h1.498zm9.014 8.179c-1.37 0-2.315-.541-2.995-1.336l1.025-.991c.553.645 1.233.991 2.062.991.933 0 1.417-.449 1.417-1.129 0-.541-.253-.876-1.094-1.025l-.76-.116c-1.625-.253-2.408-1.025-2.408-2.338 0-1.44 1.117-2.373 2.914-2.373 1.21 0 2.109.415 2.754 1.186l-1.037.98c-.392-.496-.945-.83-1.797-.83-.864 0-1.313.346-1.313.945 0 .61.345.864 1.117 1.002l.749.138c1.624.288 2.384 1.014 2.384 2.339 0 1.52-1.094 2.557-3.018 2.557zm4.543-8.179h2.926c2.096 0 3.467 1.348 3.467 4.021 0 2.672-1.37 4.02-3.467 4.02H48.34v-8.041zm2.926 6.693c1.129 0 1.855-.668 1.855-2.039v-1.267c0-1.371-.726-2.039-1.855-2.039H49.86v5.345h1.406zm7.869-5.345v6.693h-1.52v-6.693h-2.282v-1.348h6.083v1.348h-2.281zm6.156.68h1.475v.99h.046c.219-.691.864-1.129 1.659-1.129 1.52 0 2.362 1.129 2.362 3.134 0 2.016-.841 3.156-2.362 3.156-.795 0-1.429-.461-1.659-1.14h-.046v3.306h-1.475v-8.317zm2.708 4.93c.76 0 1.29-.553 1.29-1.405v-1.037c0-.853-.53-1.417-1.29-1.417-.703 0-1.233.38-1.233.968v1.912c0 .622.53.979 1.233.979zm4.2-7.442h1.474v3.514h.058c.242-.645.749-1.141 1.682-1.141 1.233 0 1.924.853 1.924 2.35v3.802h-1.475v-3.652c0-.852-.288-1.29-.99-1.29-.611 0-1.199.322-1.199.968v3.974H72.2v-8.525zm7.66 1.832l-.888-.426 1.095-2.155 1.244.611-1.452 1.97zm-.888 6.693v-6.013h1.475v6.013h-1.475zm11.333.507c0 1.256-.853 1.935-3.157 1.935-2.027 0-2.8-.53-2.8-1.417 0-.668.404-1.048 1.072-1.152v-.126c-.495-.127-.772-.519-.772-1.003 0-.622.53-.933 1.106-1.06v-.046c-.726-.334-1.094-.956-1.094-1.751 0-1.221.864-2.039 2.488-2.039.369 0 .749.046 1.048.15v-.196c0-.587.3-.875.853-.875h.933v1.129h-1.279v.161c.622.346.933.933.933 1.67 0 1.21-.852 2.016-2.488 2.016-.346 0-.657-.034-.921-.103-.23.103-.427.276-.427.541 0 .3.254.449.784.449h1.612c1.475 0 2.109.634 2.109 1.717zm-3.157-3.606c.703 0 1.083-.322 1.083-.921v-.196c0-.611-.38-.922-1.083-.922s-1.083.311-1.083.922v.196c0 .599.38.921 1.083.921zm1.774 3.779c0-.38-.276-.611-1.025-.611h-2.05a.738.738 0 00-.312.622c0 .461.346.737 1.267.737h.738c.956 0 1.382-.241 1.382-.748zm2.971-7.569c-.61 0-.864-.311-.864-.737v-.231c0-.426.254-.737.864-.737.6 0 .864.311.864.737v.231c0 .426-.265.737-.864.737zm-.737.876h1.475v6.013h-1.475v-6.013zm4.67 6.151c-1.221 0-1.912-.702-1.912-1.774 0-1.232.933-1.843 2.569-1.843h1.025v-.438c0-.668-.334-1.06-1.118-1.06-.69 0-1.082.346-1.37.761l-.876-.784c.438-.691 1.14-1.152 2.35-1.152 1.624 0 2.488.772 2.488 2.143v2.834h.6v1.175h-.818c-.634 0-1.026-.415-1.118-1.037h-.069c-.196.772-.852 1.175-1.751 1.175zm.495-1.071c.657 0 1.187-.3 1.187-.864v-.795h-.945c-.772 0-1.152.265-1.152.737v.196c0 .484.334.726.91.726zm6.839 1.071c-1.717 0-2.788-1.221-2.788-3.156 0-1.924 1.071-3.134 2.788-3.134 1.728 0 2.799 1.21 2.799 3.134 0 1.935-1.071 3.156-2.799 3.156zm0-1.186c.771 0 1.255-.496 1.255-1.406v-1.117c0-.899-.484-1.394-1.255-1.394-.761 0-1.245.495-1.245 1.394v1.117c0 .91.484 1.406 1.245 1.406zm10.561.046h-.057c-.219.679-.864 1.14-1.659 1.14-1.509 0-2.35-1.14-2.35-3.156 0-2.005.841-3.134 2.35-3.134.795 0 1.451.438 1.659 1.129h.057v-3.502h1.475v8.525h-1.475v-1.002zm-1.244-.081c.703 0 1.244-.357 1.244-.979v-1.912c0-.588-.541-.968-1.244-.968-.76 0-1.279.564-1.279 1.417v1.037c0 .852.519 1.405 1.279 1.405zm5.156-5.806c-.61 0-.864-.311-.864-.737v-.231c0-.426.254-.737.864-.737.599 0 .864.311.864.737v.231c0 .426-.265.737-.864.737zm-.737.876h1.475v6.013h-1.475v-6.013zm.726 8.248c-.599 0-.83-.288-.83-.668v-.254c0-.38.231-.668.83-.668s.829.288.829.668v.254c0 .38-.23.668-.829.668zm4.831-2.097c-1.774 0-2.776-1.221-2.776-3.156 0-1.924 1.002-3.134 2.776-3.134 1.21 0 2.004.576 2.362 1.521l-1.21.541c-.138-.506-.518-.875-1.152-.875-.818 0-1.233.576-1.233 1.417v1.094c0 .841.415 1.406 1.233 1.406.703 0 1.048-.404 1.267-.945l1.129.541c-.392 1.06-1.232 1.59-2.396 1.59zm3.533-8.663h1.475v3.514h.057c.242-.645.749-1.141 1.682-1.141 1.233 0 1.924.853 1.924 2.35v3.802h-1.475v-3.652c0-.852-.288-1.29-.99-1.29-.611 0-1.198.322-1.198.968v3.974h-1.475v-8.525z" fill="#EAECEF"/><rect x="19.92" y="139.88" width="220.16" height="71.04" rx="4.8" stroke="#333B47" stroke-width=".64"/><path fill-rule="evenodd" clip-rule="evenodd" d="M184.822 173.211l-2.095 3.63 21.974 12.687a.639.639 0 01.872-.236.64.64 0 01.233.873l6.206 3.583.195-.339-.019-.011-.014-.007a.751.751 0 11.752-1.302l.032.019.467-.808-.033-.018a.751.751 0 11.752-1.302l.032.019.467-.808-.019-.01-.014-.008a.752.752 0 01.751-1.302l.013.008.019.011.467-.808-.033-.018a.752.752 0 11.784-1.282l.467-.809-.033-.018a.751.751 0 11.784-1.282l.466-.809-.033-.018a.753.753 0 11.784-1.282l.474-.821-6.145-3.547a.752.752 0 00.336.993l-.467.809-.032-.02a.753.753 0 10-.719 1.32l-.467.809-.013-.008-.019-.012a.753.753 0 00-.752 1.302l.033.018-.466.809-.033-.02a.75.75 0 10-.751 1.302l.028.016.005.002-.467.809-.012-.008-.02-.012a.752.752 0 00-.752 1.302l.033.018-.196.339-6.206-3.583a.637.637 0 10-1.104-.637l-16.512-9.533zm22.148 13.215l.392.227-.292.507-.392-.226.292-.508zm-.532.923l.392.226-.293.507-.392-.226.293-.507zm-.532.922l.392.226-.293.507-.392-.226.293-.507z" fill="url(#paint1_linear_3223_12861)"/><path d="M206.811 174.086l.392.227-.293.507-.392-.226.293-.508z" fill="url(#paint2_linear_3223_12861)"/><path d="M206.279 175.009l.392.226-.293.507-.392-.226.293-.507z" fill="url(#paint3_linear_3223_12861)"/><path d="M205.746 175.931l.392.226-.306.53-.392-.226.306-.53z" fill="url(#paint4_linear_3223_12861)"/><path d="M205.2 176.876l.392.226-.292.507-.392-.226.292-.507z" fill="url(#paint5_linear_3223_12861)"/><path d="M204.668 177.798l.392.226-.293.508-.392-.227.293-.507z" fill="url(#paint6_linear_3223_12861)"/><path d="M204.136 178.72l.392.227-.293.507-.392-.226.293-.508z" fill="url(#paint7_linear_3223_12861)"/><path d="M203.603 179.643l.392.226-.293.507-.392-.226.293-.507z" fill="url(#paint8_linear_3223_12861)"/><path d="M203.071 180.565l.392.226-.293.507-.392-.226.293-.507z" fill="url(#paint9_linear_3223_12861)"/><path d="M202.538 181.487l.392.226-.293.508-.392-.227.293-.507z" fill="url(#paint10_linear_3223_12861)"/><path d="M185.762 177.511l.24-.416m.28-.484l.24-.415m-1.035.279l.414.239m.483.278l.414.239m4.771-9.779l.24-.415m.28-.484l.24-.415m-1.035.279l.414.239m.482.278l.414.239m10.297 20.232l.239-.415m.28-.484l.24-.415m-1.035.279l.414.239m.483.278l.414.239m4.772-9.779l.24-.416m.28-.483l.239-.416m-1.035.279l.414.239m.483.279l.414.239m-22.317.536l14.576 8.416m-10.797-17.936l-4.325 7.491m21.463 2.404l-4.326 7.491" stroke="#D0980B" stroke-width=".245"/><path fill-rule="evenodd" clip-rule="evenodd" d="M209.947 170.376l6.206 3.583-.474.821-.032-.02a.753.753 0 10-.718 1.32l-.467.809-.032-.02a.753.753 0 00-.752 1.302l.013.008.02.01-.467.809-.032-.02a.753.753 0 10-.719 1.32l-.467.809a.753.753 0 00-1.059.255.752.752 0 00.309 1.045l-.467.809-.032-.02a.753.753 0 00-.752 1.302l.033.018-.467.809a.752.752 0 10-.784 1.282l.033.018-.195.339-6.206-3.583a.639.639 0 10-1.105-.637l-21.974-12.687 3.25-5.63a1.023 1.023 0 001.021-1.767l3.237-5.608 21.975 12.687a.639.639 0 00.232.873c.305.176.696.07.872-.236zm-1.146 1.17l-.392-.226-.293.507.392.226.293-.507zm-.533.922l-.392-.226-.292.507.391.226.293-.507zm-.532.922l-.392-.226-.293.507.392.227.293-.508zm-.533.923l-.392-.227-.292.508.392.226.292-.507zm-.532.922l-.392-.227-.293.508.392.226.293-.507zm-.532.922l-.392-.226-.307.53.392.226.307-.53zm-.546.945l-.392-.226-.293.507.392.226.293-.507zm-.533.922l-.392-.226-.292.507.392.227.292-.508zm-.532.923l-.392-.227-.293.508.392.226.293-.507zm-.533.922l-.391-.226-.293.507.392.226.292-.507zm-.532.922l-.392-.226-.293.507.392.226.293-.507zm-.532.922l-.392-.226-.293.507.392.226.293-.507z" fill="url(#paint11_linear_3223_12861)"/><path d="M182.396 170.727l.24-.416m.28-.483l.24-.416m-1.036.279l.414.239m.483.279l.414.239m4.773-9.78l.239-.415m.279-.484l.24-.415m-1.035.279l.414.239m.483.278l.414.239m10.296 20.232l.24-.415m.279-.484l.24-.415m-1.035.279l.414.239m.483.278l.414.239m4.772-9.779l.24-.415m.279-.484l.24-.416m-1.035.28l.414.239m.483.278l.414.239m-22.317.537l14.576 8.415m-8.792-18.532l14.576 8.416m-16.581-7.82l-4.325 7.492m21.463 2.403l-4.325 7.491" stroke="#F8D33A" stroke-width=".245"/><g style="mix-blend-mode:multiply" filter="url(#filter0_d_3223_12861)"><path d="M188.828 169.507c-.862-.498-.981-1.062-.486-1.92l.981-1.699.767.443-1.014 1.757c-.184.317-.137.542.151.709.285.164.503.092.686-.226l1.014-1.757.772.445-.981 1.7c-.496.858-1.032 1.043-1.89.548zm2.933 1.693c-.528-.305-.764-.705-.877-1.1l.813-.246c.08.299.279.535.531.681.239.138.395.107.473-.029.05-.087.098-.197-.1-.322l-.297-.21c-.624-.432-.7-.921-.407-1.429.3-.519.949-.689 1.691-.261.433.25.703.582.817.956l-.835.266c-.05-.2-.16-.39-.436-.549-.227-.131-.353-.105-.405-.014-.09.157-.057.231.101.339l.29.222c.568.427.72.878.41 1.414-.326.565-.989.732-1.769.282zm1.911 1.038l1.663-2.879 1.159.669c.787.455 1.034 1.246.484 2.199-.55.953-1.359 1.135-2.147.68l-1.159-.669zm1.206-.25l.363.209c.309.179.55.153.776-.239l.248-.429c.226-.392.128-.613-.181-.792l-.363-.209-.843 1.46zm2.385 2.322l1.252-2.169-.697-.403.41-.709 2.19 1.265-.41.709-.697-.403-1.252 2.17-.796-.46z" fill="#D0980B"/><path d="M189.323 165.888l.053-.093-.092-.053-.054.092.093.054zm.767.443l.093.053.053-.092-.092-.054-.054.093zm.837.483l.054-.092-.093-.054-.053.093.092.053zm.772.445l.092.054.054-.093-.093-.053-.053.092zm-2.817 2.155c-.421-.242-.636-.488-.702-.757-.066-.271.012-.596.254-1.016l-.185-.107c-.252.437-.362.823-.277 1.173.086.352.361.637.803.892l.107-.185zm-.448-1.773l.982-1.7-.186-.107-.981 1.7.185.107zm.836-1.661l.767.443.107-.185-.768-.443-.106.185zm.728.297l-1.015 1.757.185.107 1.015-1.757-.185-.107zm-1.015 1.757c-.097.169-.146.333-.113.487.033.157.145.276.304.368l.107-.185c-.13-.074-.186-.151-.202-.227-.017-.08.004-.187.089-.336l-.185-.107zm.191.855c.158.091.316.127.468.077.148-.049.266-.172.364-.341l-.186-.107c-.085.148-.168.22-.245.245-.074.025-.167.014-.294-.059l-.107.185zm.832-.264l1.014-1.757-.185-.107-1.015 1.757.186.107zm.868-1.718l.771.445.107-.185-.771-.445-.107.185zm.732.299l-.981 1.699.185.107.981-1.699-.185-.107zm-.981 1.699c-.243.421-.483.653-.747.733-.262.079-.578.018-.996-.224l-.107.185c.44.254.82.348 1.165.244.342-.104.618-.394.87-.831l-.185-.107zm.259 1.195l-.031-.102-.1.03.029.101.102-.029zm.813-.246l.103-.027-.028-.107-.106.032.031.102zm.904.33l-.062.087.005.003.057-.09zm-.297-.21l.062-.087-.001-.001-.061.088zm2.101-.734l.033.102.1-.032-.03-.101-.103.031zm-.835.266l-.104.026.028.11.109-.034-.033-.102zm-.74-.224l.065-.085-.004-.003-.061.088zm.29.222l-.065.085.001.001.064-.086zm-1.305 1.604c-.501-.289-.722-.665-.828-1.037l-.205.058c.119.418.371.843.926 1.164l.107-.185zm-.9-.906l.813-.246-.062-.204-.813.246.062.204zm.679-.32c.088.329.307.587.581.745l.107-.185a1.013 1.013 0 01-.482-.615l-.206.055zm.581.745c.129.075.25.113.36.102a.329.329 0 00.259-.17l-.185-.107c-.024.042-.054.061-.094.065-.048.004-.123-.011-.233-.075l-.107.185zm.619-.068a.345.345 0 00.056-.213c-.012-.099-.079-.181-.192-.253l-.114.181c.085.054.093.089.094.098.002.016-.004.037-.029.08l.185.107zm-.131-.463l-.297-.209-.123.174.297.21.123-.175zm-.298-.21c-.299-.207-.453-.418-.505-.624-.051-.205-.007-.426.13-.663l-.185-.107c-.156.27-.221.548-.152.822.069.273.265.523.591.748l.121-.176zm-.375-1.287a.87.87 0 01.606-.435c.262-.048.584.008.939.213l.106-.185c-.387-.224-.761-.298-1.084-.238-.324.06-.587.252-.752.538l.185.107zm1.545-.222c.413.239.663.55.768.894l.205-.062c-.124-.404-.414-.756-.867-1.017l-.106.185zm.838.761l-.835.266.065.204.835-.266-.065-.204zm-.699.342c-.057-.226-.184-.441-.487-.616l-.107.185c.25.145.343.31.386.483l.208-.052zm-.487-.616a.642.642 0 00-.324-.104.259.259 0 00-.227.13l.186.107c.006-.012.016-.023.047-.023.038-.001.105.014.211.075l.107-.185zm-.551.026c-.049.086-.082.178-.051.274.029.089.106.152.185.206l.121-.176c-.079-.054-.098-.082-.103-.096-.002-.007-.007-.031.034-.101l-.186-.107zm.129.477l.29.222.13-.169-.29-.223-.13.17zm.291.223c.275.206.435.409.496.611.059.198.03.414-.114.664l.185.106c.165-.286.214-.564.133-.832-.079-.263-.279-.5-.572-.72l-.128.171zm.382 1.275a.927.927 0 01-.642.47c-.272.05-.607-.011-.981-.227l-.107.185c.405.234.792.314 1.127.252.338-.062.61-.266.788-.574l-.185-.106zm.234 1.373l-.092-.054-.054.093.093.053.053-.092zm1.663-2.879l.053-.093-.093-.053-.053.092.093.054zm-.457 2.629l-.093-.054-.053.093.093.053.053-.092zm.843-1.46l.053-.093-.092-.053-.054.092.093.054zm-1.956 1.763l1.662-2.879-.185-.107-1.662 2.879.185.107zm1.516-2.84l1.159.669.107-.185-1.159-.669-.107.185zm1.159.669c.375.217.611.507.694.846.083.34.017.748-.248 1.207l.185.107c.285-.493.37-.957.27-1.365-.099-.408-.381-.741-.794-.98l-.107.185zm.446 2.053c-.266.46-.586.721-.922.819-.335.098-.704.038-1.079-.178l-.107.185c.413.239.842.316 1.246.198.403-.117.762-.424 1.047-.917l-.185-.107zm-2.001.641l-1.159-.669-.107.185 1.159.669.107-.185zm-.06-.734l.363.21.106-.185-.363-.21-.106.185zm.363.21c.164.095.332.149.499.105.168-.044.303-.177.423-.384l-.185-.107c-.107.186-.205.261-.292.284-.087.023-.193.001-.339-.083l-.106.185zm.922-.279l.247-.429-.185-.106-.247.428.185.107zm.247-.429c.12-.206.167-.39.121-.557-.046-.167-.176-.286-.341-.38l-.106.185c.145.083.217.165.241.251.024.087.007.209-.1.395l.185.106zm-.22-.937l-.363-.21-.106.185.363.21.106-.185zm-.509-.171l-.843 1.46.186.107.843-1.46-.186-.107zm1.635 3.836l-.093-.053-.053.093.092.053.054-.093zm1.252-2.169l.093.053.053-.092-.092-.054-.054.093zm-.697-.403l-.092-.053-.054.093.093.053.053-.093zm.41-.709l.053-.093-.092-.053-.054.093.093.053zm2.19 1.265l.093.053.053-.093-.093-.053-.053.093zm-.41.709l-.053.092.093.054.053-.093-.093-.053zm-.697-.403l.054-.092-.093-.053-.053.092.092.053zm-1.252 2.17l-.054.093.093.053.053-.093-.092-.053zm-.704-.406l1.253-2.17-.185-.107-1.253 2.17.185.107zm1.214-2.316l-.697-.402-.107.185.697.402.107-.185zm-.658-.256l.409-.71-.185-.106-.409.709.185.107zm.263-.67l2.191 1.264.106-.185-2.19-1.265-.107.186zm2.152 1.118l-.41.71.185.106.41-.709-.185-.107zm-.264.67l-.697-.402-.107.185.697.402.107-.185zm-.843-.363l-1.253 2.17.185.106 1.253-2.169-.185-.107zm-1.107 2.13l-.796-.459-.107.185.796.46.107-.186z" fill="#fff"/></g><path opacity=".3" d="M223.774 161.824c-1.437-1.437-3.76-1.444-5.188-.016l-1.967 1.967a3.687 3.687 0 015.203 0l1.952-1.951z" fill="#76808F"/><path d="M216.554 169.044c-1.436-1.437-1.443-3.76-.015-5.188l1.967-1.967a3.686 3.686 0 000 5.203l-1.952 1.952z" fill="#24C7D6"/><path d="M180.93 185.449l-.738.738 2.793 2.792.737-.737-2.792-2.793zm-.738 7.798l.738.738 2.792-2.793-.737-.737-2.793 2.792zm5.006-2.055l.737-.737 2.793 2.792-.738.738-2.792-2.793zm0-2.95l.737.737 2.793-2.792-.738-.738-2.792 2.793zm-1.26-2.198h1.043v-1.842h-1.043v1.842zm-4.993 3.151v1.043h1.842v-1.043h-1.842zm4.993 6.036h1.043v-1.842h-1.043v1.842zm4.194-4.993v-1.043h1.842v1.043h-1.842z" fill="#FF7E0D"/><path fill="#F8D33A" d="M207.351 161.496l1.872-1.872 1.871 1.872-1.871 1.872z"/><path opacity=".3" fill="#CACED3" d="M193.712 192.31l1.676-1.676 1.676 1.676-1.676 1.676z"/><path d="M177.156 153.436l-.519.519 1.965 1.965.519-.519-1.965-1.965zm-.519 5.487l.519.519 1.965-1.965-.519-.519-1.965 1.965zm3.522-1.446l.519-.519 1.965 1.965-.519.519-1.965-1.965zm0-2.076l.519.519 1.965-1.965-.519-.519-1.965 1.965zm-.886-1.546h.734v-1.296h-.734v1.296zm-3.513 2.217v.734h1.296v-.734h-1.296zm3.513 4.247h.734v-1.296h-.734v1.296zm2.951-3.513v-.734h1.296v.734h-1.296z" fill="#24C7D6"/><path d="M23.701 237.747v6.693h-1.52v-6.693H19.9v-1.348h6.082v1.348h-2.28zm3.434-1.832h1.475v3.514h.057c.242-.645.749-1.141 1.682-1.141 1.233 0 1.924.853 1.924 2.35v3.802h-1.475v-3.652c0-.852-.288-1.29-.99-1.29-.61 0-1.198.322-1.198.968v3.974h-1.475v-8.525zm8.259 8.663c-1.221 0-1.913-.702-1.913-1.774 0-1.232.933-1.843 2.57-1.843h1.025v-.438c0-.668-.334-1.06-1.118-1.06-.691 0-1.083.346-1.37.761l-.876-.784c.438-.691 1.14-1.152 2.35-1.152 1.624 0 2.488.772 2.488 2.143v2.834h.6v1.175h-.819c-.633 0-1.025-.415-1.117-1.037h-.07c-.195.772-.852 1.175-1.75 1.175zm.495-1.071c.657 0 1.187-.3 1.187-.864v-.795h-.945c-.772 0-1.152.265-1.152.737v.196c0 .484.334.726.91.726zm4.454.933v-6.013h1.474v1.002h.058c.242-.645.748-1.141 1.682-1.141 1.232 0 1.923.853 1.923 2.35v3.802h-1.474v-3.652c0-.852-.288-1.29-.99-1.29-.611 0-1.199.322-1.199.968v3.974h-1.474zm6.772-8.525h1.475v3.514h.057c.242-.645.749-1.141 1.682-1.141 1.233 0 1.924.853 1.924 2.35v3.802h-1.475v-3.652c0-.852-.288-1.29-.99-1.29-.61 0-1.198.322-1.198.968v3.974h-1.475v-8.525zm11.373 8.525c-1.014 0-1.555-.553-1.555-1.532v-3.306h-.887v-1.175h.46c.438 0 .576-.208.576-.623v-1.025h1.325v1.648h1.233v1.175h-1.233v3.663h1.14v1.175h-1.06zm4.77.138c-1.716 0-2.787-1.221-2.787-3.156 0-1.924 1.071-3.134 2.788-3.134 1.728 0 2.799 1.21 2.799 3.134 0 1.935-1.072 3.156-2.8 3.156zm0-1.186c.772 0 1.256-.496 1.256-1.406v-1.117c0-.899-.484-1.394-1.255-1.394-.76 0-1.245.495-1.245 1.394v1.117c0 .91.484 1.406 1.244 1.406zm6.434-5.645l-.887-.426 1.094-2.155 1.245.611-1.452 1.97zm-.84 6.831c-1.222 0-1.913-.702-1.913-1.774 0-1.232.933-1.843 2.569-1.843h1.025v-.438c0-.668-.334-1.06-1.117-1.06-.692 0-1.083.346-1.371.761l-.876-.784c.438-.691 1.14-1.152 2.35-1.152 1.625 0 2.489.772 2.489 2.143v2.834h.599v1.175h-.818c-.634 0-1.026-.415-1.118-1.037h-.069c-.196.772-.852 1.175-1.75 1.175zm.495-1.071c.656 0 1.186-.3 1.186-.864v-.795h-.945c-.771 0-1.152.265-1.152.737v.196c0 .484.334.726.91.726zm4.453.933v-6.013h1.475v1.002h.057c.242-.645.749-1.141 1.682-1.141 1.233 0 1.924.853 1.924 2.35v3.802h-1.475v-3.652c0-.852-.288-1.29-.99-1.29-.61 0-1.198.322-1.198.968v3.974H73.8zm9.495 0v-6.013h1.475v1.002h.057c.242-.645.749-1.141 1.682-1.141 1.233 0 1.924.853 1.924 2.35v3.802h-1.475v-3.652c0-.852-.288-1.29-.99-1.29-.61 0-1.198.322-1.198.968v3.974h-1.475zm6.773-8.525h1.474v3.514h.058c.242-.645.749-1.141 1.682-1.141 1.232 0 1.924.853 1.924 2.35v3.802H93.73v-3.652c0-.852-.288-1.29-.99-1.29-.611 0-1.199.322-1.199.968v3.974h-1.474v-8.525zm8.258 8.663c-1.221 0-1.912-.702-1.912-1.774 0-1.232.933-1.843 2.569-1.843h1.025v-.438c0-.668-.334-1.06-1.117-1.06-.692 0-1.083.346-1.371.761l-.876-.784c.438-.691 1.14-1.152 2.35-1.152 1.625 0 2.489.772 2.489 2.143v2.834h.599v1.175h-.818c-.634 0-1.026-.415-1.118-1.037h-.069c-.196.772-.852 1.175-1.75 1.175zm.496-1.071c.656 0 1.186-.3 1.186-.864v-.795h-.945c-.771 0-1.152.265-1.152.737v.196c0 .484.335.726.91.726zm4.453.933v-6.013h1.475v1.002h.057c.242-.645.749-1.141 1.682-1.141 1.233 0 1.924.853 1.924 2.35v3.802h-1.475v-3.652c0-.852-.288-1.29-.99-1.29-.611 0-1.198.322-1.198.968v3.974h-1.475zm6.773-8.525h1.474v3.514h.058c.242-.645.749-1.141 1.682-1.141 1.232 0 1.923.853 1.923 2.35v3.802h-1.474v-3.652c0-.852-.288-1.29-.991-1.29-.61 0-1.198.322-1.198.968v3.974h-1.474v-8.525z" fill="#EAECEF"/><path d="M231.171 235.76l-1.131 1.132 2.829 2.828-2.829 2.828 1.131 1.132 2.829-2.829 2.828 2.829 1.132-1.132-2.829-2.828 2.829-2.828-1.132-1.132-2.828 2.829-2.829-2.829z" fill="#707A8A"/><g clip-path="url(#clip1_3223_12861)"><rect x="19.6" y="256.68" width="220.8" height="101.76" rx="6.4" fill="url(#paint12_linear_3223_12861)"/><path d="M44.331 280.936c-1.021 4.12-5.198 6.617-9.307 5.595-4.11-1.021-6.618-5.198-5.596-9.307 1.021-4.12 5.187-6.617 9.308-5.595a7.684 7.684 0 015.595 9.307z" fill="#F6921A"/><path d="M40.208 277.938c.147-1.021-.625-1.566-1.692-1.941l.34-1.384-.839-.216-.34 1.351c-.227-.057-.455-.102-.67-.159l.34-1.362-.84-.216-.34 1.385c-.182-.046-.363-.08-.534-.125l-1.157-.295-.227.897s.624.147.612.147c.341.091.41.307.398.488l-.398 1.578c.023.011.057.011.091.023-.022-.012-.056-.012-.09-.023l-.557 2.213c-.045.102-.147.261-.386.204.012.012-.612-.147-.612-.147l-.42.965 1.1.272c.205.057.41.102.602.159l-.352 1.396.84.216.34-1.385c.228.068.455.125.67.17l-.34 1.374.84.215.352-1.396c1.441.273 2.52.159 2.974-1.135.363-1.044-.023-1.646-.772-2.043.544-.113.953-.477 1.067-1.226zm-1.93 2.702c-.261 1.044-2.02.476-2.6.34l.466-1.85c.579.136 2.407.42 2.134 1.51zm.261-2.713c-.238.953-1.703.465-2.18.352l.42-1.68c.477.114 2.01.329 1.76 1.328z" fill="#fff"/><path d="M48.95 274.546h3.674c1.472 0 2.38.908 2.38 2.304 0 1.331-.857 1.804-1.446 1.894v.077c.64.038 1.754.589 1.754 2.073 0 1.472-.986 2.586-2.304 2.586H48.95v-8.934zm1.076 3.865h2.47c.845 0 1.357-.448 1.357-1.241v-.436c0-.793-.512-1.241-1.357-1.241h-2.47v2.918zm0 4.122h2.65c.92 0 1.484-.487 1.484-1.383v-.435c0-.896-.563-1.382-1.485-1.382h-2.65v3.2zm7.696-7.207c-.435 0-.627-.23-.627-.576v-.166c0-.346.192-.576.627-.576.436 0 .628.23.628.576v.166c0 .346-.192.576-.628.576zm-.511 1.549h1.023v6.605h-1.023v-6.605zm4.659 6.605c-.704 0-1.088-.448-1.088-1.088v-4.621h-1.088v-.896h.614c.435 0 .576-.153.576-.601v-1.229h.922v1.83h1.446v.896h-1.446v4.813h1.344v.896h-1.28zm5.436.154c-1.856 0-2.944-1.344-2.944-3.456s1.088-3.456 2.944-3.456c1.305 0 2.086.64 2.47 1.548l-.858.436c-.243-.679-.806-1.076-1.612-1.076-1.216 0-1.844.832-1.844 1.984v1.127c0 1.152.628 1.984 1.844 1.984.832 0 1.433-.397 1.792-1.152l.742.499c-.422.947-1.28 1.562-2.534 1.562zm6.4 0c-1.766 0-2.982-1.357-2.982-3.456 0-2.1 1.216-3.456 2.983-3.456 1.766 0 2.982 1.356 2.982 3.456 0 2.099-1.216 3.456-2.982 3.456zm0-.909c1.101 0 1.882-.679 1.882-2.074v-.947c0-1.395-.78-2.074-1.881-2.074s-1.882.679-1.882 2.074v.947c0 1.395.78 2.074 1.882 2.074zm5.179-7.399c-.435 0-.627-.23-.627-.576v-.166c0-.346.192-.576.627-.576s.627.23.627.576v.166c0 .346-.192.576-.627.576zm-.512 1.549h1.024v6.605h-1.024v-6.605zm3.2 6.605v-6.605h1.024v1.075h.051c.32-.742.883-1.228 1.869-1.228 1.357 0 2.214.921 2.214 2.521v4.237h-1.024v-4.058c0-1.177-.512-1.779-1.497-1.779-.82 0-1.613.41-1.613 1.255v4.582h-1.024zm85.517-5.212h2.274c.107 0 .184.076.184.184v1.505a.177.177 0 01-.184.184h-2.274v2.289a.176.176 0 01-.184.184h-1.505a.177.177 0 01-.185-.184v-2.289h-2.288a.177.177 0 01-.185-.184v-1.505c0-.108.077-.184.185-.184h2.288v-2.274c0-.107.077-.184.185-.184h1.505c.108 0 .184.077.184.184v2.274zm9.057-5.069c.107 0 .184.077.184.184v10.353a.178.178 0 01-.184.184h-1.398a.177.177 0 01-.184-.184v-8.556l-1.936 1.767c-.107.107-.23.046-.23-.108v-1.69c0-.092.046-.169.107-.23l1.89-1.628a.276.276 0 01.215-.092h1.536zm7.499 9.108h-3.917a.178.178 0 01-.185-.184v-1.275c0-.077.031-.154.062-.23l3.656-7.281a.23.23 0 01.215-.138h1.551c.138 0 .2.077.138.215l-3.655 7.311h2.135v-2.166c0-.107.076-.184.184-.184h1.505c.108 0 .184.077.184.184v2.166h.799c.108 0 .185.077.185.184v1.214a.178.178 0 01-.185.184h-.799v1.429a.177.177 0 01-.184.184h-1.505a.177.177 0 01-.184-.184v-1.429zm7.56-9.293c1.904 0 3.195 1.321 3.195 3.226 0 .768-.185 1.459-.753 2.596l-2.442 4.946a.232.232 0 01-.215.138h-1.552c-.138 0-.199-.077-.138-.215l2.166-4.332a2.474 2.474 0 01-.614.062c-1.644 0-2.827-1.306-2.827-3.118 0-1.982 1.275-3.303 3.18-3.303zm.015 4.716c.784 0 1.26-.553 1.26-1.459 0-.86-.476-1.459-1.26-1.459-.783 0-1.275.583-1.275 1.459 0 .906.476 1.459 1.275 1.459zm7.407 6.006a.178.178 0 01-.185.184h-1.904a.177.177 0 01-.184-.184v-1.905c0-.107.076-.184.184-.184h1.904c.108 0 .185.077.185.184v1.905zm5.133-10.722c1.904 0 3.195 1.321 3.195 3.226 0 .768-.185 1.459-.753 2.596l-2.442 4.946a.232.232 0 01-.215.138h-1.552c-.138 0-.199-.077-.138-.215l2.166-4.332a2.474 2.474 0 01-.614.062c-1.644 0-2.827-1.306-2.827-3.118 0-1.982 1.275-3.303 3.18-3.303zm.015 4.716c.784 0 1.26-.553 1.26-1.459 0-.86-.476-1.459-1.26-1.459-.783 0-1.275.583-1.275 1.459 0 .906.476 1.459 1.275 1.459zm8.175-4.716c1.904 0 3.195 1.321 3.195 3.226 0 .768-.185 1.459-.753 2.596l-2.442 4.946a.232.232 0 01-.215.138h-1.552c-.138 0-.199-.077-.138-.215l2.166-4.332a2.474 2.474 0 01-.614.062c-1.644 0-2.827-1.306-2.827-3.118 0-1.982 1.275-3.303 3.18-3.303zm.015 4.716c.784 0 1.26-.553 1.26-1.459 0-.86-.476-1.459-1.26-1.459-.783 0-1.275.583-1.275 1.459 0 .906.476 1.459 1.275 1.459zm7.115.891c-1.198 0-2.227-.707-2.227-2.105v-1.52c0-1.398 1.029-2.104 2.227-2.104s2.227.706 2.227 2.104v1.52c0 1.398-1.029 2.105-2.227 2.105zm5.176-5.499a.232.232 0 01.215-.138h1.291c.138 0 .199.076.138.215l-5.008 10.583a.23.23 0 01-.215.138h-1.29c-.138 0-.2-.077-.138-.215l5.007-10.583zm-5.176 4.116c.445 0 .737-.276.737-.844v-1.275c0-.569-.292-.83-.737-.83-.43 0-.722.261-.722.83v1.275c0 .568.292.844.722.844zm6.973 6.774c-1.198 0-2.227-.706-2.227-2.104v-1.521c0-1.398 1.029-2.104 2.227-2.104s2.228.706 2.228 2.104v1.521c0 1.398-1.03 2.104-2.228 2.104zm0-1.398c.446 0 .738-.261.738-.829v-1.275c0-.568-.292-.845-.738-.845-.43 0-.737.277-.737.845v1.275c0 .568.307.829.737.829zm-49.623 14.066c-.422 0-.653-.269-.653-.653v-2.772h-.653v-.538h.369c.261 0 .346-.092.346-.361v-.737h.553v1.098h.867v.538h-.867v2.887h.806v.538h-.768zm1.817 0v-3.963h.614v.73h.039c.138-.377.499-.73 1.144-.73h.238v.615h-.361c-.66 0-1.06.284-1.06.66v2.688h-.614zm4.28.092c-1.06 0-1.789-.814-1.789-2.073 0-1.26.729-2.074 1.789-2.074s1.789.814 1.789 2.074c0 1.259-.729 2.073-1.789 2.073zm0-.545c.66 0 1.129-.407 1.129-1.244v-.569c0-.837-.469-1.244-1.129-1.244s-1.129.407-1.129 1.244v.569c0 .837.469 1.244 1.129 1.244zm2.8.453v-3.963h.614v.645h.031c.192-.445.53-.737 1.121-.737.814 0 1.329.553 1.329 1.513v2.542h-.614v-2.435c0-.706-.308-1.067-.899-1.067-.492 0-.968.246-.968.753v2.749h-.614zm7.706.438c0 .814-.645 1.19-1.92 1.19-1.237 0-1.744-.353-1.744-.975 0-.43.238-.661.63-.768v-.085a.573.573 0 01-.353-.553c0-.399.284-.591.683-.691v-.031c-.468-.222-.745-.66-.745-1.213 0-.806.592-1.367 1.49-1.367.284 0 .538.054.753.154v-.07c0-.307.131-.529.461-.529h.591v.537h-.753v.254c.285.245.454.599.454 1.021 0 .806-.592 1.367-1.498 1.367-.131 0-.269-.015-.384-.038-.261.069-.522.199-.522.445 0 .238.246.3.606.3h.845c.983 0 1.406.399 1.406 1.052zm-1.951-2.25c.522 0 .852-.246.852-.768v-.216c0-.522-.33-.768-.852-.768s-.852.246-.852.768v.216c0 .522.33.768.852.768zm1.375 2.296c0-.315-.208-.522-.822-.522h-1.321c-.253.115-.369.291-.369.537 0 .346.238.63.861.63h.568c.683 0 1.083-.215 1.083-.645zm4.521-.392c-.845 0-1.483-.461-1.598-1.144-.008-.046.015-.077.069-.092l.484-.123c.046-.008.077 0 .092.054.138.468.461.683.953.683.568 0 .921-.392.921-.945 0-.606-.384-.998-.983-.998h-.238c-.054 0-.084-.031-.084-.084v-.446c0-.054.03-.084.084-.084h.23c.538 0 .891-.346.891-.899 0-.499-.33-.852-.86-.852-.453 0-.706.222-.852.66-.016.046-.046.069-.092.062l-.477-.123c-.053-.016-.069-.039-.061-.093.092-.637.683-1.121 1.505-1.121.937 0 1.521.584 1.521 1.452 0 .491-.223.883-.668 1.159v.016c.399.153.768.645.768 1.328 0 .937-.668 1.59-1.605 1.59zm4.564-.092v-3.963h.614v.645h.031c.192-.445.53-.737 1.121-.737.814 0 1.329.553 1.329 1.513v2.542h-.614v-2.435c0-.706-.308-1.067-.899-1.067-.492 0-.968.246-.968.753v2.749h-.614zm5.647-4.577c-.821 0-1.029-.538-1.167-.96l.346-.169.161.253c.138.223.269.392.66.392.392 0 .523-.169.661-.392l.161-.253.346.169c-.138.422-.346.96-1.168.96zm1.598 4.577c-.453 0-.638-.276-.684-.645h-.038c-.169.484-.591.737-1.144.737-.837 0-1.329-.461-1.329-1.198 0-.745.538-1.16 1.69-1.16h.783v-.391c0-.561-.307-.868-.937-.868-.476 0-.791.23-1.006.591l-.369-.345c.215-.423.692-.776 1.406-.776.952 0 1.52.499 1.52 1.336v2.181h.454v.538h-.346zm-1.766-.43c.606 0 1.044-.315 1.044-.722v-.653h-.814c-.699 0-1.014.215-1.014.599v.162c0 .391.307.614.784.614zm2.988.43v-3.963h.615v.645h.031c.176-.407.453-.737 1.067-.737.522 0 .998.238 1.213.806h.016c.146-.43.53-.806 1.206-.806.806 0 1.29.553 1.29 1.513v2.542h-.615v-2.435c0-.698-.268-1.067-.867-1.067-.484 0-.93.246-.93.753v2.749h-.614v-2.435c0-.706-.269-1.067-.853-1.067-.483 0-.944.246-.944.753v2.749h-.615zm11.055-.645h-.031c-.238.491-.614.737-1.16.737-.99 0-1.612-.806-1.612-2.073 0-1.268.622-2.074 1.612-2.074.546 0 .953.238 1.16.737h.031v-.645h.614v5.499h-.614v-2.181zm-1.022.184c.561 0 1.022-.292 1.022-.806v-1.475c0-.438-.461-.76-1.022-.76-.691 0-1.121.476-1.121 1.183v.675c0 .707.43 1.183 1.121 1.183zm5.385-.184h-.031c-.154.376-.453.737-1.114.737-.814 0-1.336-.553-1.336-1.513v-2.542h.614v2.435c0 .706.315 1.067.907 1.067.483 0 .96-.238.96-.76v-2.742h.614v3.963h-.614v-.645zm4.802.645c-.453 0-.637-.276-.683-.645h-.039c-.168.484-.591.737-1.144.737-.837 0-1.328-.461-1.328-1.198 0-.745.537-1.16 1.689-1.16h.783v-.391c0-.561-.307-.868-.936-.868-.477 0-.792.23-1.007.591l-.368-.345c.215-.423.691-.776 1.405-.776.953 0 1.521.499 1.521 1.336v2.181h.453v.538h-.346zm-1.766-.43c.607 0 1.044-.315 1.044-.722v-.653h-.814c-.698 0-1.013.215-1.013.599v.162c0 .391.307.614.783.614zM33.386 311.257h-.024c-.13.499-.675.875-1.49.875-1.313 0-2.227-.975-2.227-2.772 0-1.782.907-2.773 2.281-2.773.96 0 1.606.476 1.951 1.175l-.53.323c-.246-.569-.745-.922-1.42-.922-.945 0-1.59.699-1.59 1.759v.868c0 1.06.63 1.766 1.65 1.766.746 0 1.368-.384 1.368-1.175v-.53h-1.183v-.568h1.813v2.757h-.6v-.783zm2.114-4.109c-.261 0-.376-.138-.376-.346v-.1c0-.207.115-.345.376-.345s.376.138.376.345v.1c0 .208-.115.346-.376.346zm-.307.929h.614v3.963h-.614v-3.963zm3.256-.53l-.4-.184.654-1.306.56.269-.814 1.221zm1.544 4.493c-.453 0-.638-.277-.684-.645h-.038c-.17.484-.592.737-1.145.737-.837 0-1.328-.461-1.328-1.198 0-.745.538-1.16 1.69-1.16h.783v-.391c0-.561-.307-.868-.937-.868-.476 0-.791.23-1.006.591l-.369-.345c.215-.423.691-.776 1.406-.776.952 0 1.52.499 1.52 1.336v2.181h.453v.538h-.345zm-1.767-.43c.607 0 1.045-.315 1.045-.722v-.653h-.814c-.7 0-1.014.215-1.014.599v.161c0 .392.307.615.783.615zm8.145.868c0 .814-.645 1.19-1.92 1.19-1.236 0-1.743-.353-1.743-.975 0-.43.238-.661.63-.768v-.085a.573.573 0 01-.354-.553c0-.399.284-.591.684-.691v-.031c-.469-.222-.745-.66-.745-1.213 0-.806.591-1.367 1.49-1.367.284 0 .537.054.752.154v-.07c0-.307.13-.53.461-.53h.592v.538h-.753v.254c.284.245.453.599.453 1.021 0 .806-.591 1.367-1.498 1.367a2.04 2.04 0 01-.384-.038c-.26.069-.522.199-.522.445 0 .238.246.3.607.3h.845c.983 0 1.405.399 1.405 1.052zm-1.95-2.251c.522 0 .852-.245.852-.768v-.215c0-.522-.33-.768-.853-.768-.522 0-.852.246-.852.768v.215c0 .523.33.768.852.768zm1.374 2.297c0-.315-.207-.522-.822-.522h-1.32c-.254.115-.37.291-.37.537 0 .346.239.63.86.63h.57c.683 0 1.082-.215 1.082-.645zm.556-7.066l.538-.261.652 1.306-.376.176-.814-1.221zm2.38.86l.846 1.029-.315.231-.914-.86-.914.86-.315-.231.845-1.029h.768zm1.214 5.722c-.453 0-.637-.277-.683-.645h-.039c-.169.484-.591.737-1.144.737-.837 0-1.329-.461-1.329-1.198 0-.745.538-1.16 1.69-1.16h.783v-.391c0-.561-.307-.868-.937-.868-.476 0-.79.23-1.006.591l-.368-.345c.215-.423.69-.776 1.405-.776.952 0 1.52.499 1.52 1.336v2.181h.454v.538h-.346zm-1.766-.43c.607 0 1.044-.315 1.044-.722v-.653h-.814c-.699 0-1.014.215-1.014.599v.161c0 .392.308.615.784.615zm2.989.43v-3.963h.614v.645h.03c.193-.445.53-.737 1.122-.737.814 0 1.329.553 1.329 1.513v2.542h-.615v-2.435c0-.706-.307-1.067-.898-1.067-.492 0-.968.246-.968.753v2.749h-.614zm6.18 0v-3.963h.614v.645h.03c.193-.445.53-.737 1.122-.737.814 0 1.329.553 1.329 1.513v2.542h-.615v-2.435c0-.706-.307-1.067-.898-1.067-.492 0-.968.246-.968.753v2.749h-.614zm4.365-5.683h.614v2.365h.03c.193-.445.53-.737 1.122-.737.814 0 1.329.553 1.329 1.513v2.542h-.615v-2.435c0-.706-.307-1.067-.898-1.067-.492 0-.968.246-.968.753v2.749h-.614v-5.683zm6.83.322l-.376-.176.653-1.306.537.261-.814 1.221zm-.799-.361l.845 1.029-.315.231-.914-.86-.914.86-.314-.231.844-1.029h.768zm1.214 5.722c-.453 0-.638-.277-.684-.645h-.038c-.17.484-.592.737-1.145.737-.837 0-1.328-.461-1.328-1.198 0-.745.537-1.16 1.69-1.16h.783v-.391c0-.561-.307-.868-.937-.868-.476 0-.791.23-1.006.591l-.369-.345c.215-.423.691-.776 1.406-.776.952 0 1.52.499 1.52 1.336v2.181h.453v.538h-.345zm-1.767-.43c.607 0 1.045-.315 1.045-.722v-.653h-.814c-.7 0-1.014.215-1.014.599v.161c0 .392.307.615.783.615zm3.865.43c-.423 0-.653-.269-.653-.653v-2.772h-.653v-.538h.369c.26 0 .345-.092.345-.361v-.737h.553v1.098h.868v.538h-.868v2.887h.807v.538h-.768zm-39.183 18.28v-.881c-1.035-.082-1.72-.543-2.233-1.157l.748-.676c.42.512.911.84 1.556.922v-2.294c-1.464-.318-2.089-.932-2.089-1.966 0-1.086.779-1.751 2.018-1.884v-.891h.87v.891c.87.082 1.515.45 1.987 1.054l-.758.625a1.942 1.942 0 00-1.29-.768v2.099c1.484.328 2.13.901 2.13 1.966 0 1.096-.748 1.895-2.069 2.059v.901h-.87zm-.953-6.103c0 .563.328.819 1.024 1.013v-1.945c-.645.092-1.024.42-1.024.932zm2.816 3.215c0-.512-.256-.84-1.054-1.044v2.129c.665-.112 1.054-.522 1.054-1.085zm8.776.983c.071 0 .122.051.122.123v.819a.118.118 0 01-.122.123h-3.994a.118.118 0 01-.123-.123v-.86c0-.061.02-.102.061-.143l2.704-3.103c.235-.266.389-.655.389-.973 0-.614-.41-1.024-1.024-1.024-.584 0-1.034.41-1.034 1.024 0 .082-.051.123-.123.123h-.88c-.072 0-.124-.041-.124-.123 0-1.167.922-2.068 2.161-2.068 1.29 0 2.15.829 2.15 2.078 0 .482-.276 1.116-.686 1.577l-2.232 2.55h2.755zm3.422-6.205c1.27 0 2.16.829 2.16 2.181 0 .501-.133.962-.512 1.741l-1.607 3.256a.155.155 0 01-.144.092H44.9c-.093 0-.134-.051-.093-.143l1.444-2.888a1.704 1.704 0 01-.553.092c-1.054 0-1.915-.84-1.915-2.109 0-1.342.881-2.222 2.15-2.222zm.01 3.389c.614 0 1.044-.451 1.044-1.188 0-.747-.43-1.198-1.044-1.198-.625 0-1.055.451-1.055 1.198 0 .676.4 1.188 1.055 1.188zm4.712 4.403c0 .062-.02.113-.071.154l-.963.788c-.082.062-.153.031-.153-.071v-2.458c0-.072.05-.123.123-.123h.942c.071 0 .123.051.123.123v1.587zm4.664-4.239c.625.266 1.035.809 1.035 1.72 0 1.403-1.014 2.12-2.233 2.12-1.136 0-2.232-.584-2.232-1.935 0-.082.051-.123.123-.123h.901c.072 0 .113.041.123.112.082.553.491.912 1.085.912.656 0 1.096-.451 1.096-1.117 0-.665-.45-1.105-1.126-1.105h-.052a.119.119 0 01-.122-.123v-.84c0-.072.05-.123.122-.123h.052c.614 0 1.024-.409 1.024-1.014 0-.624-.4-1.044-.994-1.044-.532 0-.931.338-1.003.85-.01.071-.051.112-.123.112h-.89c-.073 0-.114-.041-.114-.112 0-1.055.994-1.874 2.13-1.874 1.24 0 2.12.829 2.12 2.038 0 .778-.348 1.269-.922 1.546zm4.324 3.778c-1.25 0-2.243-.798-2.243-2.119 0-.871.492-1.403 1.004-1.71a1.779 1.779 0 01-.88-1.567c0-1.219.931-2.017 2.119-2.017 1.188 0 2.13.798 2.13 2.017 0 .768-.41 1.28-.88 1.567.511.307 1.003.839 1.003 1.71 0 1.321-1.004 2.119-2.253 2.119zm0-4.321c.594 0 1.024-.44 1.024-1.044 0-.594-.43-1.055-1.024-1.055-.594 0-1.014.461-1.014 1.055 0 .604.42 1.044 1.014 1.044zm0 3.318a1.12 1.12 0 001.126-1.137c0-.635-.45-1.147-1.126-1.147-.676 0-1.127.512-1.127 1.147a1.12 1.12 0 001.127 1.137zm6.013-.154H62.85a.118.118 0 01-.123-.123v-.819a.41.41 0 01.03-.153l2.428-4.864a.154.154 0 01.143-.093h.922c.092 0 .133.052.092.144l-2.417 4.884h1.73v-1.525c0-.072.052-.123.124-.123h.85c.071 0 .122.051.122.123v1.525h.615c.072 0 .123.052.123.123v.778a.118.118 0 01-.123.123h-.615v.973a.118.118 0 01-.122.123h-.85a.118.118 0 01-.123-.123v-.973zm4.231.973a.118.118 0 01-.123.123h-1.003a.118.118 0 01-.123-.123v-1.003c0-.072.05-.123.123-.123h1.003c.072 0 .123.051.123.123v1.003zm4.601-6.093h-2.1v1.024a.118.118 0 01-.122.123h-.81a.118.118 0 01-.122-.123v-1.833c0-.071.051-.123.123-.123h4.096c.072 0 .123.052.123.123v.727a.45.45 0 01-.03.154l-2.315 6.052c-.02.061-.072.092-.143.092h-.943c-.092 0-.133-.051-.102-.143l2.345-6.073zm4.938 5.12H76.62a.118.118 0 01-.123-.123v-.819a.41.41 0 01.03-.153l2.428-4.864a.154.154 0 01.143-.093h.922c.092 0 .133.052.092.144l-2.417 4.884h1.73v-1.525c0-.072.052-.123.124-.123h.85c.071 0 .122.051.122.123v1.525h.615c.072 0 .123.052.123.123v.778a.118.118 0 01-.123.123h-.615v.973a.118.118 0 01-.122.123h-.85a.118.118 0 01-.123-.123v-.973z" fill="#EAECEF"/><rect x="169.36" y="312.36" width="61.44" height="21.4" rx="10.7" fill="#FCD535"/><path d="M181.364 319.306h1.201l1.676 3.181h.053l1.676-3.181h1.147v6.254h-.968v-4.785h-.045l-.493 1.013-1.37 2.5-1.371-2.5-.493-1.013h-.045v4.785h-.968v-6.254zm10.049 5.483h-.036c-.17.457-.538.879-1.308.879-.959 0-1.524-.655-1.524-1.801v-2.966h.977v2.84c0 .708.296 1.084.896 1.084.502 0 .995-.26.995-.806v-3.118h.976v4.659h-.976v-.771zm5.788.771c-.51 0-.779-.323-.842-.78h-.045c-.179.583-.681.888-1.361.888-.959 0-1.506-.547-1.506-1.389 0-.923.69-1.398 1.989-1.398h.843v-.394c0-.565-.305-.896-.959-.896-.547 0-.878.269-1.111.636l-.583-.529c.305-.519.852-.905 1.757-.905 1.2 0 1.872.592 1.872 1.631v2.339h.493v.797h-.547zm-1.971-.636c.601 0 1.049-.287 1.049-.744v-.672h-.825c-.681 0-1.012.224-1.012.627v.162c0 .412.304.627.788.627zm5.593.636v-4.659h.976v.77h.045c.197-.501.592-.878 1.308-.878.95 0 1.515.663 1.515 1.81v2.957h-.977v-2.831c0-.726-.278-1.093-.878-1.093-.511 0-1.013.259-1.013.806v3.118h-.976zm9.283.439c0 .968-.69 1.461-2.365 1.461-1.524 0-2.115-.413-2.115-1.12 0-.511.305-.789.797-.896v-.099c-.34-.108-.528-.367-.528-.717 0-.484.376-.717.824-.824v-.036c-.546-.26-.851-.753-.851-1.38 0-.95.672-1.595 1.855-1.595.313 0 .6.045.842.144v-.126c0-.412.197-.663.609-.663h.717v.789h-.95v.188c.421.278.654.726.654 1.263 0 .941-.681 1.577-1.863 1.577-.224 0-.439-.027-.61-.072-.233.081-.448.233-.448.466 0 .251.242.35.654.35h1.147c1.147 0 1.631.484 1.631 1.29zm-2.374-2.742c.573 0 .905-.26.905-.788v-.179c0-.529-.332-.789-.905-.789-.574 0-.905.26-.905.789v.179c0 .528.331.788.905.788zm1.46 2.85c0-.323-.215-.529-.851-.529h-1.577a.602.602 0 00-.323.538c0 .376.278.636 1.004.636h.609c.762 0 1.138-.215 1.138-.645zm5.028-.547c-.511 0-.779-.323-.842-.78h-.045c-.179.583-.681.888-1.362.888-.958 0-1.505-.547-1.505-1.389 0-.923.69-1.398 1.989-1.398h.842v-.394c0-.565-.304-.896-.958-.896-.547 0-.878.269-1.111.636l-.583-.529c.305-.519.851-.905 1.756-.905 1.201 0 1.873.592 1.873 1.631v2.339h.493v.797h-.547zm-1.971-.636c.6 0 1.048-.287 1.048-.744v-.672h-.824c-.681 0-1.012.224-1.012.627v.162c0 .412.304.627.788.627zm6.272-4.023h.941l-1.962 5.582c-.224.627-.502.869-1.228.869h-.564v-.797h.788l.269-.789-1.694-4.865h.977l.932 2.742.269 1.012h.044l.296-1.012.932-2.742z" fill="#202630"/><path d="M209.296 356.52h4.864l-.256 1.92h-4.864l.256-1.92z" fill="#EAECEF"/><path d="M217.604 356.52h4.876l-.244 1.92h-4.876l.244-1.92zm8.32 0h4.876l-.244 1.92h-4.876l.244-1.92z" fill="#E6E8EA"/></g><mask id="a" style="mask-type:alpha" maskUnits="userSpaceOnUse" x="10" y="377" width="240" height="29"><path fill="#181E25" d="M10 377.64h240v28.16H10z"/></mask><g mask="url(#a)"><path d="M20.545 384.519h2.926c2.096 0 3.467 1.348 3.467 4.021 0 2.672-1.37 4.02-3.467 4.02h-2.926v-8.041zm2.926 6.693c1.129 0 1.855-.668 1.855-2.039v-1.267c0-1.371-.726-2.039-1.855-2.039h-1.406v5.345h1.406zm6.41 1.486c-1.221 0-1.912-.702-1.912-1.774 0-1.232.933-1.843 2.569-1.843h1.025v-.438c0-.668-.334-1.06-1.117-1.06-.692 0-1.083.346-1.371.761l-.876-.784c.438-.691 1.14-1.152 2.35-1.152 1.625 0 2.489.772 2.489 2.143v2.834h.599v1.175h-.818c-.634 0-1.026-.415-1.118-1.037h-.069c-.196.772-.852 1.175-1.75 1.175zm.495-1.071c.657 0 1.187-.3 1.187-.864v-.795h-.945c-.771 0-1.152.265-1.152.737v.196c0 .484.334.726.91.726zm4.454.933v-6.013h1.475v1.002h.057c.242-.645.749-1.141 1.682-1.141 1.233 0 1.924.853 1.924 2.35v3.802h-1.475v-3.652c0-.852-.288-1.29-.99-1.29-.61 0-1.198.322-1.198.968v3.974H34.83zm6.773-8.525h1.474v3.514h.058c.242-.645.748-1.141 1.682-1.141 1.232 0 1.923.853 1.923 2.35v3.802h-1.474v-3.652c0-.852-.288-1.29-.99-1.29-.611 0-1.199.322-1.199.968v3.974h-1.474v-8.525zm11.465 8.663c-1.141 0-1.89-.414-2.489-1.106l.899-.875c.438.507.967.818 1.647.818.703 0 1.002-.265 1.002-.691 0-.346-.207-.565-.737-.634l-.599-.081c-1.29-.161-2.005-.725-2.005-1.82 0-1.163.91-1.901 2.282-1.901 1.175 0 1.774.346 2.35.945l-.864.864a1.985 1.985 0 00-1.44-.645c-.634 0-.91.253-.91.622 0 .403.218.587.783.68l.61.08c1.314.185 1.947.772 1.947 1.774 0 1.164-.979 1.97-2.476 1.97zm6.105-6.831l-.887-.426 1.095-2.155 1.244.611-1.452 1.97zm-.84 6.831c-1.222 0-1.913-.702-1.913-1.774 0-1.232.933-1.843 2.569-1.843h1.025v-.438c0-.668-.334-1.06-1.117-1.06-.691 0-1.083.346-1.371.761l-.876-.784c.438-.691 1.141-1.152 2.35-1.152 1.625 0 2.489.772 2.489 2.143v2.834h.599v1.175h-.818c-.634 0-1.025-.415-1.117-1.037h-.07c-.195.772-.852 1.175-1.75 1.175zm.495-1.071c.656 0 1.186-.3 1.186-.864v-.795h-.944c-.772 0-1.152.265-1.152.737v.196c0 .484.334.726.91.726zm6.826 1.071c-1.774 0-2.776-1.221-2.776-3.156 0-1.924 1.002-3.134 2.776-3.134 1.21 0 2.005.576 2.362 1.521l-1.21.541c-.138-.506-.518-.875-1.152-.875-.817 0-1.232.576-1.232 1.417v1.094c0 .841.415 1.406 1.232 1.406.703 0 1.049-.404 1.268-.945l1.129.541c-.392 1.06-1.233 1.59-2.397 1.59zm3.534-8.663h1.474v3.514h.058c.242-.645.749-1.141 1.682-1.141 1.232 0 1.924.853 1.924 2.35v3.802H72.85v-3.652c0-.852-.288-1.29-.99-1.29-.611 0-1.199.322-1.199.968v3.974h-1.474v-8.525zm11.372 8.525c-1.013 0-1.555-.553-1.555-1.532v-3.306h-.887v-1.175h.46c.439 0 .577-.208.577-.623v-1.025h1.325v1.648h1.232v1.175H80.48v3.663h1.14v1.175h-1.06zm2.431-8.525h1.475v3.514h.058c.241-.645.748-1.141 1.681-1.141 1.233 0 1.924.853 1.924 2.35v3.802h-1.474v-3.652c0-.852-.288-1.29-.991-1.29-.61 0-1.198.322-1.198.968v3.974H82.99v-8.525zm9.204 8.663c-1.774 0-2.834-1.232-2.834-3.156 0-1.901 1.025-3.134 2.787-3.134 1.878 0 2.742 1.383 2.742 3.03v.484h-3.997v.15c0 .864.495 1.451 1.463 1.451.726 0 1.163-.345 1.532-.818l.795.887c-.496.68-1.371 1.106-2.489 1.106zm-.023-5.184c-.772 0-1.28.576-1.28 1.406v.092h2.466v-.104c0-.829-.426-1.394-1.187-1.394zm6.4 5.184c-1.716 0-2.788-1.221-2.788-3.156 0-1.924 1.072-3.134 2.788-3.134 1.728 0 2.8 1.21 2.8 3.134 0 1.935-1.072 3.156-2.8 3.156zm0-1.186c.772 0 1.256-.496 1.256-1.406v-1.117c0-.899-.484-1.394-1.256-1.394-.76 0-1.244.495-1.244 1.394v1.117c0 .91.484 1.406 1.244 1.406zm10.562.046h-.058c-.219.679-.864 1.14-1.659 1.14-1.509 0-2.35-1.14-2.35-3.156 0-2.005.841-3.134 2.35-3.134.795 0 1.452.438 1.659 1.129h.058v-3.502h1.474v8.525h-1.474v-1.002zm-1.244-.081c.702 0 1.244-.357 1.244-.979v-1.912c0-.588-.542-.968-1.244-.968-.761 0-1.279.564-1.279 1.417v1.037c0 .852.518 1.405 1.279 1.405zm7.667-5.875c-.357 0-.622-.127-.898-.254-.346-.149-.599-.264-.864-.264s-.438.103-.68.299l-.541-.691c.265-.38.668-.703 1.255-.703.358 0 .623.127.899.254.346.161.599.265.864.265s.438-.104.68-.3l.541.691c-.265.38-.668.703-1.256.703zm-.864 7.096c-1.716 0-2.787-1.221-2.787-3.156 0-1.924 1.071-3.134 2.787-3.134 1.728 0 2.8 1.21 2.8 3.134 0 1.935-1.072 3.156-2.8 3.156zm0-1.186c.772 0 1.256-.496 1.256-1.406v-1.117c0-.899-.484-1.394-1.256-1.394-.76 0-1.244.495-1.244 1.394v1.117c0 .91.484 1.406 1.244 1.406zm4.844-5.841c-.61 0-.864-.311-.864-.737v-.231c0-.426.254-.737.864-.737.599 0 .864.311.864.737v.231c0 .426-.265.737-.864.737zm-.737.876h1.475v6.013H118.8v-6.013zM62.92 402.68h15.36v1.92H62.92z" fill="#EAECEF"/><path d="M141.027 392.698c-2.12 0-3.468-1.394-3.468-4.101s1.348-4.216 3.468-4.216c1.44 0 2.373.61 2.937 1.855l-1.301.691c-.231-.715-.738-1.198-1.636-1.198-1.129 0-1.855.818-1.855 2.188v1.268c0 1.382.726 2.165 1.855 2.165.91 0 1.474-.553 1.739-1.278l1.233.725c-.576 1.199-1.532 1.901-2.972 1.901zm6.562 0c-1.717 0-2.788-1.221-2.788-3.156 0-1.924 1.071-3.134 2.788-3.134 1.728 0 2.799 1.21 2.799 3.134 0 1.935-1.071 3.156-2.799 3.156zm0-1.186c.771 0 1.255-.496 1.255-1.406v-1.117c0-.899-.484-1.394-1.255-1.394-.761 0-1.245.495-1.245 1.394v1.117c0 .91.484 1.406 1.245 1.406zm4.843-5.841c-.61 0-.864-.311-.864-.737v-.231c0-.426.254-.737.864-.737.6 0 .864.311.864.737v.231c0 .426-.264.737-.864.737zm-.737.876h1.475v6.013h-1.475v-6.013zm3.184 6.013v-6.013h1.474v1.002h.058c.242-.645.749-1.141 1.682-1.141 1.233 0 1.924.853 1.924 2.35v3.802h-1.475v-3.652c0-.852-.288-1.29-.99-1.29-.611 0-1.199.322-1.199.968v3.974h-1.474z" fill="#848E9C"/></g><path d="M39.775 437.074c-1.362 5.494-6.931 8.823-12.41 7.461-5.478-1.362-8.823-6.931-7.461-12.409 1.362-5.494 6.916-8.823 12.41-7.461 5.494 1.377 8.823 6.931 7.461 12.409z" fill="#F6921A"/><path d="M34.277 433.078c.197-1.362-.833-2.089-2.255-2.588l.454-1.846-1.12-.288-.454 1.801c-.303-.076-.606-.136-.893-.212l.454-1.816-1.12-.287-.454 1.846c-.242-.061-.484-.106-.711-.167l-1.544-.393-.303 1.196s.833.196.817.196c.454.121.545.409.53.651l-.53 2.104c.03.015.076.015.122.03-.03-.015-.076-.015-.122-.03l-.741 2.951c-.06.136-.197.348-.515.272.015.015-.817-.197-.817-.197l-.56 1.287 1.468.363c.273.076.545.136.802.212l-.469 1.861 1.12.288.454-1.847c.303.091.605.167.893.227l-.454 1.832 1.12.287.47-1.861c1.921.363 3.359.212 3.964-1.514.484-1.392-.03-2.194-1.029-2.724.727-.151 1.271-.635 1.423-1.634zm-2.573 3.602c-.348 1.392-2.694.635-3.466.454l.62-2.467c.773.181 3.21.56 2.846 2.013zm.348-3.617c-.318 1.271-2.27.62-2.906.469l.56-2.24c.636.151 2.679.439 2.346 1.771z" fill="#fff"/><path d="M51.265 422.919h3.72c1.325 0 2.132.818 2.132 2.062 0 1.221-.703 1.682-1.44 1.728v.069c.703.012 1.74.507 1.74 1.878 0 1.29-.888 2.304-2.074 2.304h-4.078v-8.041zm1.52 3.352h1.878c.553 0 .876-.322.876-.852v-.357c0-.542-.323-.853-.876-.853h-1.878v2.062zm0 3.399h2.12c.576 0 .922-.311.922-.876v-.391c0-.565-.346-.888-.922-.888h-2.12v2.155zm6.764-5.599c-.611 0-.864-.311-.864-.737v-.231c0-.426.253-.737.864-.737.599 0 .864.311.864.737v.231c0 .426-.265.737-.864.737zm-.738.876h1.475v6.013H58.81v-6.013zm5.062 6.013c-1.014 0-1.555-.553-1.555-1.532v-3.306h-.887v-1.175h.46c.438 0 .576-.208.576-.623v-1.025h1.325v1.648h1.233v1.175h-1.233v3.663h1.14v1.175h-1.06zm4.759.138c-1.774 0-2.776-1.221-2.776-3.156 0-1.924 1.002-3.134 2.776-3.134 1.21 0 2.004.576 2.361 1.521l-1.21.541c-.137-.507-.517-.875-1.151-.875-.818 0-1.233.576-1.233 1.417v1.094c0 .841.415 1.406 1.233 1.406.703 0 1.048-.404 1.267-.945l1.13.541c-.393 1.06-1.234 1.59-2.397 1.59zm5.861 0c-1.716 0-2.787-1.221-2.787-3.156 0-1.924 1.071-3.134 2.787-3.134 1.728 0 2.8 1.21 2.8 3.134 0 1.935-1.072 3.156-2.8 3.156zm0-1.186c.772 0 1.256-.496 1.256-1.406v-1.117c0-.899-.484-1.394-1.256-1.394-.76 0-1.244.495-1.244 1.394v1.117c0 .91.484 1.406 1.244 1.406zm4.844-5.841c-.61 0-.864-.311-.864-.737v-.231c0-.426.254-.737.864-.737.6 0 .864.311.864.737v.231c0 .426-.265.737-.864.737zm-.737.876h1.475v6.013H78.6v-6.013zm3.184 6.013v-6.013h1.474v1.002h.058c.242-.645.749-1.141 1.682-1.141 1.233 0 1.924.853 1.924 2.35v3.802h-1.475v-3.652c0-.852-.288-1.29-.99-1.29-.611 0-1.199.322-1.199.968v3.974h-1.474z" fill="#EAECEF"/><path d="M51.272 440.732h2.94c1.177 0 1.904.728 1.904 1.844 0 1.065-.686 1.444-1.157 1.515v.062c.512.03 1.403.471 1.403 1.659 0 1.177-.789 2.068-1.843 2.068h-3.247v-7.148zm.86 3.093h1.977c.676 0 1.085-.358 1.085-.993v-.348c0-.635-.41-.994-1.085-.994h-1.977v2.335zm0 3.297h2.12c.737 0 1.188-.389 1.188-1.106v-.348c0-.717-.45-1.106-1.188-1.106h-2.12v2.56zm7.977-5.632v6.39h-.86v-6.39h-2.274v-.758h5.407v.758H60.11zm5.772 6.513c-1.802 0-2.877-1.27-2.877-3.656s1.075-3.737 2.877-3.737c1.188 0 2.007.573 2.458 1.566l-.696.42c-.287-.737-.88-1.218-1.762-1.218-1.228 0-1.955.972-1.955 2.437v1.065c0 1.464.727 2.355 1.955 2.355.912 0 1.536-.512 1.823-1.29l.686.43c-.45 1.003-1.32 1.628-2.509 1.628z" fill="#848E9C"/><path d="M204.903 426.721h1.705c.08 0 .138.057.138.138v1.129c0 .08-.058.138-.138.138h-1.705v1.717c0 .08-.058.138-.138.138h-1.129a.134.134 0 01-.139-.138v-1.717h-1.716a.133.133 0 01-.138-.138v-1.129c0-.081.057-.138.138-.138h1.716v-1.705c0-.081.058-.139.139-.139h1.129c.08 0 .138.058.138.139v1.705zm8.071 2.972c.08 0 .138.057.138.138v.991c0 .08-.058.138-.138.138h-4.447a.133.133 0 01-.138-.138v-1.037c0-.069.011-.127.057-.173l2.95-3.663c.253-.311.357-.576.357-.91 0-.645-.38-1.037-.991-1.037-.553 0-.945.369-.991.933-.011.092-.069.138-.15.138h-1.082c-.081 0-.139-.046-.139-.138.069-1.29.991-2.154 2.362-2.154 1.417 0 2.35.898 2.35 2.281 0 .61-.184 1.025-.772 1.751l-2.35 2.88h2.984zm3.297 1.129c0 .08-.058.138-.138.138h-1.429a.133.133 0 01-.138-.138v-1.429c0-.08.058-.138.138-.138h1.429c.08 0 .138.058.138.138v1.429zm3.884.276c-.737 0-1.313-.207-1.728-.622-.345-.345-.541-.795-.61-1.405-.012-.092.046-.139.126-.15l1.095-.081c.08-.011.126.035.149.115.104.542.438.818.968.818.726 0 1.037-.437 1.037-1.463 0-.979-.277-1.417-.899-1.417-.391 0-.668.173-.829.496-.035.08-.081.115-.161.103l-1.187-.138c-.081-.011-.127-.057-.127-.138v-4.159c0-.08.058-.138.139-.138h4.101c.08 0 .138.058.138.138v.991a.133.133 0 01-.138.138h-2.961v1.913c.3-.312.714-.473 1.221-.473.542 0 1.002.173 1.348.519.484.483.714 1.186.714 2.165 0 1.014-.207 1.671-.691 2.155-.426.426-.991.633-1.705.633zm6.385-4.827c1.232 0 2.131.991 2.131 2.35 0 1.486-.968 2.477-2.396 2.477-1.429 0-2.408-.979-2.408-2.431 0-.564.161-1.082.576-1.935l1.832-3.709a.173.173 0 01.161-.104h1.163c.104 0 .15.058.104.161l-1.613 3.249c.139-.035.288-.058.45-.058zm-.277 3.479c.576 0 .968-.426.968-1.106 0-.656-.38-1.094-.968-1.094-.576 0-.956.438-.956 1.094 0 .669.38 1.106.956 1.106zm5.348-2.764c-.899 0-1.671-.53-1.671-1.579v-1.14c0-1.048.772-1.578 1.671-1.578.898 0 1.67.53 1.67 1.578v1.14c0 1.049-.772 1.579-1.67 1.579zm3.882-4.125a.173.173 0 01.161-.103h.968c.104 0 .15.057.104.161l-3.756 7.937a.173.173 0 01-.161.104h-.968c-.104 0-.15-.058-.104-.161l3.756-7.938zm-3.882 3.088c.334 0 .553-.208.553-.634v-.956c0-.426-.219-.622-.553-.622-.323 0-.542.196-.542.622v.956c0 .426.219.634.542.634zm5.23 5.08c-.899 0-1.671-.53-1.671-1.578v-1.141c0-1.048.772-1.578 1.671-1.578.898 0 1.67.53 1.67 1.578v1.141c0 1.048-.772 1.578-1.67 1.578zm0-1.048c.334 0 .553-.196.553-.622v-.956c0-.427-.219-.634-.553-.634-.323 0-.553.207-.553.634v.956c0 .426.23.622.553.622z" fill="#2EBD85"/><path d="M193.415 448.72v-.84c-1.034-.072-1.731-.553-2.233-1.219l.605-.542c.44.583.952.942 1.638 1.034v-2.632c-1.403-.317-2.027-.891-2.027-1.945 0-1.096.829-1.731 2.017-1.844v-.839h.635v.829c.921.082 1.587.482 2.078 1.157l-.624.471a2.093 2.093 0 00-1.465-.89v2.396l.093.02c1.413.318 2.037.881 2.037 1.956 0 1.167-.819 1.925-2.119 2.048v.84h-.635zm-1.209-6.206c0 .697.4.983 1.219 1.209v-2.263c-.737.092-1.219.46-1.219 1.054zm3.154 3.369c0-.686-.368-1.024-1.321-1.249v2.519c.809-.102 1.321-.573 1.321-1.27zm2.26 1.997c-.072 0-.102-.031-.102-.102v-.553c0-.052.02-.103.051-.144l2.58-3.287c.338-.44.512-.85.512-1.249 0-.666-.45-1.126-1.136-1.126-.656 0-1.065.348-1.168 1.054-.01.072-.051.092-.112.082l-.646-.133a.113.113 0 01-.081-.133c.153-.911.839-1.69 2.027-1.69 1.229 0 2.017.809 2.017 1.946 0 .563-.235 1.137-.696 1.72l-2.212 2.775v.021h2.806c.072 0 .102.031.102.102v.615c0 .071-.03.102-.102.102h-3.84zm6.523 0c-.082 0-.103-.031-.072-.102l1.608-2.97-.031-.02c-.154.112-.399.163-.717.163-1.157 0-2.038-.85-2.038-2.119 0-1.362.932-2.222 2.212-2.222 1.27 0 2.181.839 2.181 2.191 0 .502-.163 1.044-.481 1.628l-1.812 3.379c-.031.052-.072.072-.144.072h-.706zm-.338-5.1c0 .902.645 1.352 1.28 1.352.645 0 1.29-.45 1.29-1.352 0-.911-.645-1.361-1.28-1.361-.645 0-1.29.45-1.29 1.361zm4.874 6.093c-.061 0-.092-.03-.092-.092v-1.997c0-.071.031-.102.102-.102h.717c.072 0 .102.031.102.102v.953c0 .092-.02.174-.061.225l-.635.84c-.041.051-.082.071-.133.071zm4.306-.87c-1.127 0-1.977-.615-2.13-1.526-.011-.061.02-.102.092-.123l.645-.164c.061-.01.102 0 .123.072.184.625.614.911 1.27.911.757 0 1.228-.522 1.228-1.259 0-.809-.512-1.331-1.31-1.331h-.318c-.071 0-.112-.041-.112-.113v-.594c0-.072.041-.112.112-.112h.307c.717 0 1.188-.461 1.188-1.199 0-.665-.44-1.136-1.147-1.136-.604 0-.942.297-1.136.88-.021.062-.062.093-.123.082l-.635-.163c-.072-.021-.092-.052-.082-.123.123-.85.911-1.495 2.007-1.495 1.249 0 2.028.778 2.028 1.935 0 .655-.297 1.178-.891 1.546v.021c.532.204 1.024.86 1.024 1.771 0 1.249-.891 2.12-2.14 2.12zm5.57 0c-1.311 0-2.212-.85-2.212-2.11 0-.788.41-1.443 1.014-1.761v-.031c-.481-.256-.85-.819-.85-1.515 0-1.106.809-1.976 2.048-1.976 1.26 0 2.048.87 2.048 1.976 0 .696-.369 1.259-.85 1.515v.031c.604.318 1.014.973 1.014 1.761 0 1.26-.901 2.11-2.212 2.11zm-1.137-5.438c0 .768.564 1.147 1.137 1.147.563 0 1.137-.389 1.137-1.147 0-.757-.564-1.136-1.137-1.136-.563 0-1.137.389-1.137 1.136zm1.137 4.619c.87 0 1.311-.666 1.311-1.321 0-.666-.43-1.321-1.311-1.321s-1.311.655-1.311 1.31c0 .666.441 1.332 1.311 1.332zm6.308.696c-.072 0-.103-.031-.103-.102v-1.086c0-.041-.02-.061-.071-.061h-2.775c-.072 0-.103-.031-.103-.103v-.583a.28.28 0 01.031-.123l2.314-5.008a.154.154 0 01.144-.082h.706c.072 0 .103.031.072.093l-2.273 4.976v.021h1.884c.051 0 .071-.021.071-.062v-1.874c0-.071.031-.102.103-.102h.676c.071 0 .102.031.102.102v1.874c0 .041.021.062.061.062h.656c.072 0 .102.03.102.102v.604c0 .072-.03.103-.102.103h-.656c-.04 0-.061.02-.061.061v1.086c0 .071-.031.102-.102.102h-.676zm2.734-.102v-.881c0-.072.031-.102.102-.102h.778c.072 0 .103.03.103.102v.881c0 .071-.031.102-.103.102h-.778c-.071 0-.102-.031-.102-.102zm3.239.102c-.082 0-.092-.031-.061-.113l2.437-6.174v-.041h-2.181c-.041 0-.062.02-.062.061v.891c0 .072-.031.113-.102.113h-.635c-.072 0-.103-.041-.103-.113v-1.669c0-.072.031-.103.103-.103h3.819c.072 0 .103.031.103.103v.655c0 .031 0 .062-.021.103l-2.457 6.195c-.031.061-.072.092-.144.092h-.696zm7.547 0c-.072 0-.103-.031-.103-.102v-1.086c0-.041-.02-.061-.071-.061h-2.775c-.072 0-.103-.031-.103-.103v-.583a.28.28 0 01.031-.123l2.314-5.008a.154.154 0 01.144-.082h.706c.072 0 .103.031.072.093l-2.273 4.976v.021h1.884c.051 0 .071-.021.071-.062v-1.874c0-.071.031-.102.103-.102h.676c.071 0 .102.031.102.102v1.874c0 .041.021.062.061.062h.656c.072 0 .102.03.102.102v.604c0 .072-.03.103-.102.103h-.656c-.04 0-.061.02-.061.061v1.086c0 .071-.031.102-.102.102h-.676z" fill="#EAECEF"/><circle cx="29.84" cy="488.36" r="10.24" fill="#F0B90B"/><path d="M26.192 483.646l3.607-2.099 3.607 2.099-1.326.776-2.28-1.324-2.282 1.324-1.326-.776zm7.214 2.648l-1.326-.775-2.28 1.324-2.282-1.324-1.326.775v1.552l2.281 1.324v2.648l1.326.775 1.326-.775v-2.648l2.281-1.324v-1.552zm0 4.2v-1.552l-1.326.776v1.551l1.326-.775zm.942.548l-2.281 1.324v1.551l3.607-2.099v-4.2l-1.326.776v2.648zm-1.326-6.072l1.326.776v1.551l1.326-.775v-1.552l-1.326-.775-1.326.775zm-4.549 7.958v1.551l1.326.776 1.326-.776v-1.551l-1.326.775-1.326-.775zm-2.28-2.434l1.325.775v-1.551l-1.326-.776v1.552zm2.28-5.524l1.326.776 1.326-.776-1.326-.775-1.326.775zm-3.222.776l1.326-.776-1.326-.775-1.326.775v1.552l1.326.775v-1.551zm0 2.648l-1.326-.776v4.2l3.607 2.099v-1.551l-2.281-1.324v-2.648z" fill="#000"/><path d="M51.265 476.679h3.72c1.325 0 2.132.818 2.132 2.062 0 1.221-.703 1.682-1.44 1.728v.069c.703.012 1.74.507 1.74 1.878 0 1.29-.888 2.304-2.074 2.304h-4.078v-8.041zm1.52 3.352h1.878c.553 0 .876-.322.876-.852v-.357c0-.542-.323-.853-.876-.853h-1.878v2.062zm0 3.399h2.12c.576 0 .922-.311.922-.876v-.391c0-.565-.346-.888-.922-.888h-2.12v2.155zm8.423-2.834l-.83-1.671h-.035v5.795h-1.44v-8.041h1.67l2.42 4.124.83 1.671h.034v-5.795h1.44v8.041h-1.67l-2.42-4.124zm5.975-3.917h3.721c1.325 0 2.132.818 2.132 2.062 0 1.221-.703 1.682-1.44 1.728v.069c.702.012 1.74.507 1.74 1.878 0 1.29-.888 2.304-2.075 2.304h-4.078v-8.041zm1.521 3.352h1.878c.553 0 .875-.322.875-.852v-.357c0-.542-.322-.853-.875-.853h-1.878v2.062zm0 3.399h2.12c.576 0 .921-.311.921-.876v-.391c0-.565-.345-.888-.921-.888h-2.12v2.155z" fill="#EAECEF"/><path d="M51.272 494.492h2.94c1.177 0 1.904.728 1.904 1.844 0 1.065-.686 1.444-1.157 1.515v.062c.512.03 1.403.471 1.403 1.659 0 1.177-.789 2.068-1.843 2.068h-3.247v-7.148zm.86 3.093h1.977c.676 0 1.085-.358 1.085-.993v-.348c0-.635-.41-.994-1.085-.994h-1.977v2.335zm0 3.297h2.12c.737 0 1.188-.389 1.188-1.106v-.348c0-.717-.45-1.106-1.188-1.106h-2.12v2.56zm7.56-3.604l-.86-1.587h-.03v5.949h-.84v-7.148h.994l2.61 4.363.861 1.587h.03v-5.95h.84v7.148h-.993l-2.611-4.362zm5.51-2.786h2.94c1.177 0 1.904.728 1.904 1.844 0 1.065-.686 1.444-1.157 1.515v.062c.512.03 1.403.471 1.403 1.659 0 1.177-.789 2.068-1.844 2.068h-3.246v-7.148zm.86 3.093h1.977c.676 0 1.085-.358 1.085-.993v-.348c0-.635-.41-.994-1.085-.994h-1.977v2.335zm0 3.297h2.12c.737 0 1.188-.389 1.188-1.106v-.348c0-.717-.45-1.106-1.188-1.106h-2.12v2.56z" fill="#848E9C"/><path d="M204.903 480.481h1.705c.08 0 .138.057.138.138v1.129c0 .08-.058.138-.138.138h-1.705v1.717c0 .08-.058.138-.138.138h-1.129a.134.134 0 01-.139-.138v-1.717h-1.716a.133.133 0 01-.138-.138v-1.129c0-.081.057-.138.138-.138h1.716v-1.705c0-.081.058-.139.139-.139h1.129c.08 0 .138.058.138.139v1.705zm6.274 3.029h-2.938a.132.132 0 01-.138-.138v-.956c0-.058.023-.115.046-.173l2.742-5.46a.173.173 0 01.161-.104h1.163c.104 0 .15.058.104.161l-2.742 5.484h1.602v-1.625c0-.08.057-.138.138-.138h1.129c.081 0 .138.058.138.138v1.625h.599c.081 0 .138.057.138.138v.91a.132.132 0 01-.138.138h-.599v1.072c0 .08-.057.138-.138.138h-1.129a.133.133 0 01-.138-.138v-1.072zm5.094 1.072c0 .08-.058.138-.138.138h-1.429a.133.133 0 01-.138-.138v-1.429c0-.08.058-.138.138-.138h1.429c.08 0 .138.058.138.138v1.429zm6.119-1.129c.081 0 .138.057.138.138v.991c0 .08-.057.138-.138.138h-4.447a.133.133 0 01-.138-.138v-1.037c0-.069.012-.127.058-.173l2.949-3.663c.253-.311.357-.576.357-.91 0-.645-.38-1.037-.991-1.037-.553 0-.944.369-.991.933-.011.092-.069.138-.149.138h-1.083c-.081 0-.138-.046-.138-.138.069-1.29.99-2.154 2.361-2.154 1.417 0 2.35.898 2.35 2.281 0 .61-.184 1.025-.772 1.751l-2.35 2.88h2.984zm3.873-6.912c1.429 0 2.396.99 2.396 2.419 0 .576-.138 1.094-.564 1.947l-1.832 3.709a.173.173 0 01-.161.104h-1.164c-.103 0-.149-.058-.103-.161l1.624-3.249a1.87 1.87 0 01-.461.046c-1.232 0-2.12-.979-2.12-2.338 0-1.487.957-2.477 2.385-2.477zm.012 3.536c.587 0 .944-.414.944-1.094 0-.645-.357-1.094-.944-1.094-.588 0-.957.437-.957 1.094 0 .68.358 1.094.957 1.094zm5.336.669c-.899 0-1.671-.53-1.671-1.579v-1.14c0-1.048.772-1.578 1.671-1.578.898 0 1.67.53 1.67 1.578v1.14c0 1.049-.772 1.579-1.67 1.579zm3.882-4.125a.173.173 0 01.161-.103h.968c.104 0 .15.057.104.161l-3.756 7.937a.173.173 0 01-.161.104h-.968c-.104 0-.15-.058-.104-.161l3.756-7.938zm-3.882 3.088c.334 0 .553-.208.553-.634v-.956c0-.426-.219-.622-.553-.622-.323 0-.542.196-.542.622v.956c0 .426.219.634.542.634zm5.23 5.08c-.899 0-1.671-.53-1.671-1.578v-1.141c0-1.048.772-1.578 1.671-1.578.898 0 1.67.53 1.67 1.578v1.141c0 1.048-.772 1.578-1.67 1.578zm0-1.048c.334 0 .553-.196.553-.622v-.956c0-.427-.219-.634-.553-.634-.323 0-.553.207-.553.634v.956c0 .426.23.622.553.622z" fill="#2EBD85"/><path d="M206.875 502.48v-.84c-1.034-.072-1.731-.553-2.233-1.219l.605-.542c.44.583.952.942 1.638 1.034v-2.632c-1.403-.317-2.027-.891-2.027-1.945 0-1.096.829-1.731 2.017-1.844v-.839h.635v.829c.921.082 1.587.482 2.078 1.157l-.624.471a2.093 2.093 0 00-1.465-.89v2.396l.093.02c1.413.318 2.037.881 2.037 1.956 0 1.167-.819 1.925-2.119 2.048v.84h-.635zm-1.209-6.206c0 .697.4.983 1.219 1.209v-2.263c-.737.092-1.219.46-1.219 1.054zm3.154 3.369c0-.686-.368-1.024-1.321-1.249v2.519c.809-.102 1.321-.573 1.321-1.27zm2.26 1.997c-.072 0-.102-.031-.102-.102v-.553c0-.052.02-.103.051-.144l2.58-3.287c.338-.44.512-.85.512-1.249 0-.666-.45-1.126-1.136-1.126-.656 0-1.065.348-1.168 1.054-.01.072-.051.092-.112.082l-.646-.133a.113.113 0 01-.081-.133c.153-.911.839-1.69 2.027-1.69 1.229 0 2.017.809 2.017 1.946 0 .563-.235 1.137-.696 1.72l-2.212 2.775v.021h2.806c.072 0 .102.031.102.102v.615c0 .071-.03.102-.102.102h-3.84zm7.455.123c-1.127 0-1.977-.615-2.13-1.526-.011-.061.02-.102.092-.123l.645-.164c.061-.01.102 0 .123.072.184.625.614.911 1.27.911.757 0 1.228-.522 1.228-1.259 0-.809-.512-1.331-1.31-1.331h-.318c-.071 0-.112-.041-.112-.113v-.594c0-.072.041-.112.112-.112h.307c.717 0 1.188-.461 1.188-1.199 0-.665-.44-1.136-1.147-1.136-.604 0-.942.297-1.136.88-.021.062-.062.093-.123.082l-.635-.163c-.072-.021-.092-.052-.082-.123.123-.85.911-1.495 2.007-1.495 1.249 0 2.028.778 2.028 1.935 0 .655-.297 1.178-.891 1.546v.021c.532.204 1.024.86 1.024 1.771 0 1.249-.891 2.12-2.14 2.12zm4.618-.123c-.082 0-.103-.031-.072-.102l1.608-2.97-.031-.02c-.154.112-.399.163-.717.163-1.157 0-2.038-.85-2.038-2.119 0-1.362.932-2.222 2.212-2.222 1.27 0 2.181.839 2.181 2.191 0 .502-.163 1.044-.481 1.628l-1.812 3.379c-.031.052-.072.072-.144.072h-.706zm-.338-5.1c0 .902.645 1.352 1.28 1.352.645 0 1.29-.45 1.29-1.352 0-.911-.645-1.361-1.28-1.361-.645 0-1.29.45-1.29 1.361zm4.782 4.998v-.881c0-.072.031-.102.102-.102h.778c.072 0 .103.03.103.102v.881c0 .071-.031.102-.103.102h-.778c-.071 0-.102-.031-.102-.102zm4.202 0v-5.96h-.031l-1.147.809c-.031.02-.113.031-.113-.062v-.757c0-.062.021-.113.072-.144l1.198-.87a.273.273 0 01.164-.062h.614c.072 0 .103.031.103.103v6.943c0 .071-.031.102-.103.102h-.655c-.072 0-.102-.031-.102-.102zm5.887.225c-1.095 0-1.884-.615-2.007-1.495-.01-.072.011-.103.082-.123l.625-.164c.072-.02.123.021.133.092.082.543.522.871 1.167.871.533 0 .881-.246 1.055-.707.062-.164.092-.461.092-.891 0-.409-.041-.717-.102-.911-.143-.461-.512-.696-1.045-.696-.532 0-.901.307-1.054.665-.031.072-.072.113-.123.113h-.625c-.071 0-.102-.041-.102-.113v-3.809c0-.072.031-.103.102-.103h3.605c.071 0 .102.031.102.103v.614c0 .072-.031.103-.102.103h-2.827c-.04 0-.061.02-.061.061v2.017h.031c.246-.307.635-.471 1.177-.471.891 0 1.547.42 1.772 1.178.102.338.153.747.153 1.249 0 .471-.051.86-.143 1.157-.246.799-.993 1.26-1.905 1.26z" fill="#EAECEF"/><path fill="#181A20" d="M10 475.88h240V529H10z"/><path fill-rule="evenodd" clip-rule="evenodd" d="M75.92 484.2c0-.707.573-1.28 1.28-1.28h8.96c.707 0 1.28.573 1.28 1.28v7.68a1.28 1.28 0 01-1.28 1.28h-5.12l-2.56 2.56v-2.56H77.2a1.28 1.28 0 01-1.28-1.28v-7.68zm3.342 1.709a4.8 4.8 0 014.801 4.8h1.28a6.08 6.08 0 00-6.08-6.08v1.28zm2.24 4.8a2.24 2.24 0 00-2.24-2.24v-1.28a3.52 3.52 0 013.52 3.52h-1.28zm-2.24.96a.96.96 0 10.001-1.919.96.96 0 000 1.919z" fill="#707A8A"/><path d="M27.28 493.16v-3.2c0-.707.573-1.28 1.28-1.28h.64c.707 0 1.28.573 1.28 1.28v3.2a1.28 1.28 0 01-1.28 1.28h-.64a1.28 1.28 0 01-1.28-1.28zm5.76-10.24a1.28 1.28 0 00-1.28 1.28v8.96c0 .707.573 1.28 1.28 1.28h.64a1.28 1.28 0 001.28-1.28v-8.96a1.28 1.28 0 00-1.28-1.28h-.64zm4.48 3.84a1.28 1.28 0 00-1.28 1.28v5.12c0 .707.573 1.28 1.28 1.28h.64a1.28 1.28 0 001.28-1.28v-5.12a1.28 1.28 0 00-1.28-1.28h-.64zm-17.293 13.773h-1.33v-.64h3.385v.64H20.95v3.827h-.724v-3.827zm2.709-.909h.697v1.958h.032c.14-.358.422-.627.934-.627.679 0 1.082.474 1.082 1.293v2.112h-.698v-2.029c0-.512-.198-.774-.627-.774-.365 0-.723.185-.723.569v2.234h-.697v-4.736zm4.064.813c-.288 0-.416-.154-.416-.365v-.109c0-.211.128-.365.416-.365s.41.154.41.365v.109c0 .211-.122.365-.41.365zm-.352.595h.698v3.328h-.698v-3.328zm.352 4.506c-.288 0-.41-.141-.41-.34v-.115c0-.198.122-.339.41-.339s.41.141.41.339v.115c0 .199-.122.34-.41.34zm3.776-1.178c-.48 0-.736-.269-.736-.723v-2.035h-.518v-.57h.281c.23 0 .307-.096.307-.326v-.583h.628v.909h.697v.57h-.697v2.188h.646v.57h-.608zm1.416 0v-3.328h.697v.64h.032c.096-.339.384-.64.916-.64h.185v.672h-.275c-.55 0-.858.186-.858.531v2.125h-.697zm5.643-3.398c0 .313-.096.505-.48.505v2.893h-.697v-.55h-.026c-.121.326-.384.627-.934.627-.685 0-1.088-.467-1.088-1.287v-2.118h.697v2.029c0 .505.212.774.64.774.359 0 .71-.185.71-.576v-2.227h.577v-.698h.601v.628zm1-1.396l.607-.294.583 1.152-.436.211-.755-1.069zm2.444.768v.615c0 .326-.115.505-.48.505.294.352.39.756.39 1.236 0 1.062-.595 1.747-1.523 1.747-.928 0-1.53-.685-1.53-1.747 0-1.069.602-1.735 1.53-1.735.186 0 .352.026.512.077h.5v-.698h.6zm-1.613 3.527c.474 0 .787-.307.787-.89v-.557c0-.588-.313-.883-.787-.883-.473 0-.793.295-.793.883v.557c0 .583.32.89.793.89zm2.3.499v-3.328h.698v.55h.032c.141-.358.423-.627.935-.627.678 0 1.081.474 1.081 1.293v2.112h-.697v-2.022c0-.519-.199-.781-.627-.781-.365 0-.724.185-.724.576v2.227h-.697zm6.632.314c0 .691-.493 1.043-1.69 1.043-1.088 0-1.51-.295-1.51-.8 0-.365.217-.563.57-.64v-.071a.507.507 0 01-.378-.512c0-.345.268-.512.588-.588v-.026c-.39-.186-.607-.538-.607-.986 0-.678.48-1.139 1.324-1.139.224 0 .43.032.602.103v-.09c0-.294.14-.474.435-.474h.512v.564h-.678v.134c.3.198.467.518.467.902 0 .672-.486 1.127-1.331 1.127a1.76 1.76 0 01-.435-.051c-.167.057-.32.166-.32.332 0 .18.172.25.467.25h.819c.82 0 1.165.346 1.165.922zm-1.696-1.959c.41 0 .646-.185.646-.563v-.128c0-.378-.237-.563-.646-.563-.41 0-.647.185-.647.563v.128c0 .378.237.563.647.563zm1.043 2.035c0-.23-.154-.377-.608-.377H46.21a.429.429 0 00-.23.384c0 .269.199.454.717.454h.435c.544 0 .813-.153.813-.461z" fill="#EAECEF"/><path d="M75.046 504.36v-4.467h2.79v.64H75.77v1.241h1.837v.64H75.77v1.946h-.723zm4.723.077c-.947 0-1.53-.679-1.53-1.741s.583-1.741 1.53-1.741c.98 0 1.479.736 1.479 1.658v.262h-2.285v.109c0 .512.313.877.877.877.41 0 .684-.192.876-.499l.41.403c-.25.403-.736.672-1.357.672zm0-2.938c-.48 0-.806.359-.806.871v.044h1.549v-.064c0-.512-.282-.851-.743-.851zm3.556 2.938c-.947 0-1.53-.679-1.53-1.741s.583-1.741 1.53-1.741c.98 0 1.479.736 1.479 1.658v.262h-2.285v.109c0 .512.314.877.877.877.41 0 .685-.192.877-.499l.41.403c-.25.403-.737.672-1.358.672zm0-2.938c-.48 0-.806.359-.806.871v.044h1.549v-.064c0-.512-.282-.851-.742-.851zm4.344 2.311h-.032c-.14.39-.493.627-.934.627-.839 0-1.325-.647-1.325-1.741s.486-1.741 1.325-1.741c.441 0 .793.231.934.627h.032v-1.958h.698v4.736h-.698v-.55zm-.755.025c.422 0 .755-.23.755-.569v-1.14c0-.339-.333-.569-.755-.569-.48 0-.8.339-.8.851v.576c0 .512.32.851.8.851zm80.548-3.942h1.581c1.139 0 1.888.742 1.888 2.233 0 1.492-.749 2.234-1.888 2.234h-1.581v-4.467zm1.581 3.827c.665 0 1.113-.429 1.113-1.235v-.717c0-.806-.448-1.235-1.113-1.235h-.858v3.187h.858zm3.088-3.283c-.288 0-.416-.154-.416-.365v-.109c0-.211.128-.365.416-.365s.41.154.41.365v.109c0 .211-.122.365-.41.365zm-.352.595h.698v3.328h-.698v-3.328zm.352 4.506c-.288 0-.409-.141-.409-.34v-.115c0-.198.121-.339.409-.339s.41.141.41.339v.115c0 .199-.122.34-.41.34zm2.628-1.101c-.96 0-1.51-.679-1.51-1.741s.55-1.741 1.51-1.741c.666 0 1.088.327 1.287.819l-.576.269c-.096-.307-.333-.505-.711-.505-.512 0-.774.352-.774.864v.595c0 .512.262.864.774.864.404 0 .64-.218.781-.551l.531.282c-.217.544-.672.845-1.312.845zm1.977-4.813h.697v1.958h.032c.141-.358.423-.627.935-.627.678 0 1.081.474 1.081 1.293v2.112h-.697v-2.029c0-.512-.199-.774-.628-.774-.364 0-.723.185-.723.569v2.234h-.697v-4.736zm5.948 4.736l-1.133-3.328h.691l.506 1.517.339 1.165h.038l.34-1.165.518-1.517h.666l-1.146 3.328h-.819zm4.568-.55h-.026c-.122.326-.384.627-.934.627-.685 0-1.088-.467-1.088-1.287v-2.118h.697v2.029c0 .505.211.774.64.774.359 0 .711-.185.711-.576v-2.227h.697v3.328h-.697v-.55zm-.685 1.728c-.288 0-.41-.141-.41-.34v-.115c0-.198.122-.339.41-.339s.409.141.409.339v.115c0 .199-.121.34-.409.34zm25.585-5.645h1.58c1.14 0 1.888.742 1.888 2.233 0 1.492-.748 2.234-1.888 2.234h-1.58v-4.467zm1.58 3.827c.666 0 1.114-.429 1.114-1.235v-.717c0-.806-.448-1.235-1.114-1.235h-.857v3.187h.857zm5.176.64c-.365 0-.557-.23-.602-.557h-.032c-.128.416-.486.634-.973.634-.685 0-1.075-.391-1.075-.992 0-.659.493-.999 1.421-.999h.601v-.281c0-.403-.217-.64-.684-.64-.391 0-.628.192-.794.454l-.416-.377c.218-.372.608-.647 1.254-.647.858 0 1.338.423 1.338 1.165v1.67h.352v.57h-.39zm-1.408-.454c.428 0 .748-.205.748-.532v-.48h-.588c-.487 0-.724.16-.724.448v.116c0 .294.218.448.564.448zm2.482.454v-3.328h.697v.55h.032c.141-.358.423-.627.935-.627.678 0 1.081.474 1.081 1.293v2.112h-.697v-2.022c0-.519-.199-.781-.628-.781-.364 0-.723.185-.723.576v2.227h-.697zm3.712-4.736h.698v1.958h.032c.141-.358.422-.627.934-.627.679 0 1.082.474 1.082 1.293v2.112h-.698v-2.029c0-.512-.198-.774-.627-.774-.365 0-.723.185-.723.569v2.234h-.698v-4.736zm5.225 4.736v-3.328h.698v.55h.032c.134-.345.384-.627.889-.627.448 0 .826.218.986.679h.019c.122-.372.467-.679 1.005-.679.659 0 1.05.474 1.05 1.293v2.112h-.698v-2.029c0-.512-.192-.774-.614-.774-.352 0-.679.185-.679.569v2.234h-.697v-2.029c0-.518-.199-.774-.608-.774-.346 0-.685.185-.685.569v2.234h-.698zm7.66-.55h-.026c-.121.326-.384.627-.934.627-.685 0-1.088-.467-1.088-1.287v-2.118h.698v2.029c0 .505.211.774.64.774.358 0 .71-.185.71-.576v-2.227h.698v3.328h-.698v-.55zm-.685 1.728c-.288 0-.409-.141-.409-.34v-.115c0-.198.121-.339.409-.339s.41.141.41.339v.115c0 .199-.122.34-.41.34zm3.668-1.101c-.96 0-1.511-.679-1.511-1.741s.551-1.741 1.511-1.741c.665 0 1.088.327 1.286.819l-.576.269c-.096-.307-.333-.505-.71-.505-.512 0-.775.352-.775.864v.595c0 .512.263.864.775.864.403 0 .64-.218.781-.551l.531.282c-.218.544-.672.845-1.312.845z" fill="#848E9C"/><path fill-rule="evenodd" clip-rule="evenodd" d="M232.08 487.112v-.332a1.28 1.28 0 00-1.28-1.28h-8.576c-.312 0-.624-.312-.624-.676 0-.364.312-.624.624-.624h7.264a.64.64 0 100-1.28h-7.264c-.884 0-1.664.78-1.664 1.664v9.856h10.24a1.28 1.28 0 001.28-1.28v-6.048zm-1.92 1.568a1.28 1.28 0 100 2.56 1.28 1.28 0 000-2.56z" fill="#707A8A"/><path fill="#181A20" d="M10 507.24h240V529H10z"/><path d="M173.975 482.92l-2.055 2.122 4.16 4.278 4.16-4.278-2.055-2.122h-4.21z" fill="#707A8A"/><path fill-rule="evenodd" clip-rule="evenodd" d="M180.24 494.44a3.2 3.2 0 100-6.4 3.2 3.2 0 000 6.4zm0-4.558l-1.358 1.358 1.358 1.358 1.358-1.358-1.358-1.358z" fill="#707A8A"/><circle cx="182.16" cy="484.2" r="1.28" fill="#707A8A"/><circle cx="173.84" cy="492.52" r="1.92" fill="#707A8A"/><rect x="114.96" y="492.52" width="21.12" height="21.12" rx="5.12" transform="rotate(-45 114.96 492.52)" fill="#FCD535"/><g clip-path="url(#clip2_3223_12861)" fill="#202630"><path d="M128.418 492.754a.633.633 0 01-.865.002l-2.993-2.793.926-.863 2.076-1.938a.632.632 0 01.862.923l-1.356 1.266h7.12a.613.613 0 010 1.225h-7.12l1.348 1.253c.268.25.27.674.002.925zm3.168-.468a.632.632 0 01.865-.001l2.989 2.792-.926.863-2.072 1.938a.632.632 0 01-.862-.923l1.357-1.266h-7.125a.612.612 0 110-1.224h7.125l-1.349-1.254a.633.633 0 01-.002-.925z"/></g><path fill-rule="evenodd" clip-rule="evenodd" d="M10 475.88h240v.64H10v-.64z" fill="#333B47"/></g><defs><linearGradient id="paint0_linear_3223_12861" x1="29.724" y1="50.996" x2="24.836" y2="46.108" gradientUnits="userSpaceOnUse"><stop stop-color="#F0B90B"/><stop offset="1" stop-color="#F8D33A"/></linearGradient><linearGradient id="paint1_linear_3223_12861" x1="201.123" y1="173.211" x2="201.123" y2="193.748" gradientUnits="userSpaceOnUse"><stop stop-color="#F0B90B"/><stop offset="1" stop-color="#F8D33A"/></linearGradient><linearGradient id="paint2_linear_3223_12861" x1="201.123" y1="173.211" x2="201.123" y2="193.748" gradientUnits="userSpaceOnUse"><stop stop-color="#F0B90B"/><stop offset="1" stop-color="#F8D33A"/></linearGradient><linearGradient id="paint3_linear_3223_12861" x1="201.123" y1="173.211" x2="201.123" y2="193.748" gradientUnits="userSpaceOnUse"><stop stop-color="#F0B90B"/><stop offset="1" stop-color="#F8D33A"/></linearGradient><linearGradient id="paint4_linear_3223_12861" x1="201.123" y1="173.211" x2="201.123" y2="193.748" gradientUnits="userSpaceOnUse"><stop stop-color="#F0B90B"/><stop offset="1" stop-color="#F8D33A"/></linearGradient><linearGradient id="paint5_linear_3223_12861" x1="201.123" y1="173.211" x2="201.123" y2="193.748" gradientUnits="userSpaceOnUse"><stop stop-color="#F0B90B"/><stop offset="1" stop-color="#F8D33A"/></linearGradient><linearGradient id="paint6_linear_3223_12861" x1="201.123" y1="173.211" x2="201.123" y2="193.748" gradientUnits="userSpaceOnUse"><stop stop-color="#F0B90B"/><stop offset="1" stop-color="#F8D33A"/></linearGradient><linearGradient id="paint7_linear_3223_12861" x1="201.123" y1="173.211" x2="201.123" y2="193.748" gradientUnits="userSpaceOnUse"><stop stop-color="#F0B90B"/><stop offset="1" stop-color="#F8D33A"/></linearGradient><linearGradient id="paint8_linear_3223_12861" x1="201.123" y1="173.211" x2="201.123" y2="193.748" gradientUnits="userSpaceOnUse"><stop stop-color="#F0B90B"/><stop offset="1" stop-color="#F8D33A"/></linearGradient><linearGradient id="paint9_linear_3223_12861" x1="201.123" y1="173.211" x2="201.123" y2="193.748" gradientUnits="userSpaceOnUse"><stop stop-color="#F0B90B"/><stop offset="1" stop-color="#F8D33A"/></linearGradient><linearGradient id="paint10_linear_3223_12861" x1="201.123" y1="173.211" x2="201.123" y2="193.748" gradientUnits="userSpaceOnUse"><stop stop-color="#F0B90B"/><stop offset="1" stop-color="#F8D33A"/></linearGradient><linearGradient id="paint11_linear_3223_12861" x1="197.719" y1="133.896" x2="197.845" y2="186.964" gradientUnits="userSpaceOnUse"><stop stop-color="#fff"/><stop offset="1" stop-color="#FCE892"/></linearGradient><linearGradient id="paint12_linear_3223_12861" x1="130" y1="256.68" x2="129.631" y2="373.566" gradientUnits="userSpaceOnUse"><stop stop-color="#302F2E"/><stop offset="1" stop-color="#181A20"/></linearGradient><clipPath id="clip0_3223_12861"><rect x="10" y="9" width="240" height="520" rx="32" fill="#fff"/></clipPath><clipPath id="clip1_3223_12861"><rect x="19.6" y="256.68" width="220.8" height="101.76" rx="6.4" fill="#fff"/></clipPath><clipPath id="clip2_3223_12861"><path fill="#fff" transform="translate(123.28 486.12)" d="M0 0h12.8v12.8H0z"/></clipPath><filter id="filter0_d_3223_12861" x="187.632" y="165.838" width="12.814" height="9.604" filterUnits="userSpaceOnUse" color-interpolation-filters="sRGB"><feFlood flood-opacity="0" result="BackgroundImageFix"/><feColorMatrix in="SourceAlpha" values="0 0 0 0 0 0 0 0 0 0 0 0 0 0 0 0 0 0 127 0" result="hardAlpha"/><feOffset dy=".22"/><feColorMatrix values="0 0 0 0 0.973954 0 0 0 0 0.828837 0 0 0 0 0.226047 0 0 0 1 0"/><feBlend in2="BackgroundImageFix" result="effect1_dropShadow_3223_12861"/><feBlend in="SourceGraphic" in2="effect1_dropShadow_3223_12861" result="shape"/></filter></defs></svg>